<?xml version="1.0" encoding="UTF-8"?>
<svg id="OBJECTS" xmlns="http://www.w3.org/2000/svg" xmlns:xlink="http://www.w3.org/1999/xlink" viewBox="0 0 500 500">
  <defs>
    <style>
      .cls-1 {
        letter-spacing: -.01em;
      }

      .cls-2 {
        fill: #9e6c52;
      }

      .cls-2, .cls-3, .cls-4, .cls-5, .cls-6, .cls-7, .cls-8, .cls-9, .cls-10, .cls-11, .cls-12, .cls-13, .cls-14, .cls-15, .cls-16, .cls-17, .cls-18, .cls-19, .cls-20, .cls-21, .cls-22, .cls-23, .cls-24, .cls-25, .cls-26, .cls-27 {
        stroke-width: 0px;
      }

      .cls-3 {
        fill: #ad2727;
      }

      .cls-4 {
        fill: #7f4932;
      }

      .cls-5 {
        fill: #ce714d;
      }

      .cls-28 {
        opacity: .5;
      }

      .cls-29 {
        letter-spacing: 0em;
      }

      .cls-6 {
        fill: #29477c;
      }

      .cls-30 {
        clip-path: url(#clippath-2);
      }

      .cls-7 {
        fill: #d3a092;
      }

      .cls-8 {
        fill: #1976d2;
      }

      .cls-9 {
        fill: #f7d4aa;
      }

      .cls-11 {
        fill: #8e4136;
      }

      .cls-31 {
        letter-spacing: -.06em;
      }

      .cls-12 {
        fill: none;
      }

      .cls-13 {
        fill: #2196f3;
      }

      .cls-32 {
        clip-path: url(#clippath-1);
      }

      .cls-14 {
        fill: #5b3d31;
      }

      .cls-15 {
        fill: #fff;
      }

      .cls-16 {
        fill: #1565c0;
      }

      .cls-17 {
        fill: #ff931d;
      }

      .cls-18 {
        fill: #f0d0c6;
      }

      .cls-19 {
        fill: #fbb901;
      }

      .cls-20 {
        fill: #1b1b28;
      }

      .cls-33 {
        clip-path: url(#clippath);
      }

      .cls-21 {
        fill: #efad9c;
      }

      .cls-22 {
        fill: #c16b5b;
      }

      .cls-23 {
        fill: #d8b288;
      }

      .cls-34 {
        clip-path: url(#clippath-3);
      }

      .cls-24 {
        fill: #fff4e9;
      }

      .cls-25 {
        fill: #ffe6ca;
      }

      .cls-35 {
        font-family: Montserrat-Bold, 'Montserrat Bold';
        font-size: 15.53px;
        font-weight: 700;
      }

      .cls-35, .cls-27 {
        fill: #1a3263;
      }

      .cls-26 {
        fill: #d83e3a;
      }
    </style>
    <clipPath id="clippath">
      <rect class="cls-12" x="32.51" y="122.41" width="120.4" height="176.69"/>
    </clipPath>
    <clipPath id="clippath-1">
      <rect class="cls-12" x="345.16" y="122.41" width="120.4" height="176.69"/>
    </clipPath>
    <clipPath id="clippath-2">
      <rect class="cls-12" x="-9.71" y="-9.71" width="519.42" height="519.42"/>
    </clipPath>
    <clipPath id="clippath-3">
      <rect class="cls-12" x="199.18" y="124.49" width="114.06" height="167.38" transform="translate(-16.81 22.59) rotate(-4.89)"/>
    </clipPath>
  </defs>
  <g>
    <g>
      <g>
        <g>
          <path class="cls-20" d="M201.65,414.22h-4.03c0-5.39,1.9-9.9,5.64-13.42,9.95-9.36,29.58-8.29,30.42-8.23l-.24,4.02c-.19,0-18.74-1.02-27.42,7.15-2.93,2.76-4.36,6.19-4.36,10.48Z"/>
          <path class="cls-20" d="M218.61,414.22h-4.03c0-7.91,2.14-13.82,6.37-17.56,5.54-4.91,12.55-4.11,12.85-4.08l-.48,4c-.05,0-5.57-.58-9.73,3.13-3.3,2.95-4.98,7.83-4.98,14.51Z"/>
          <path class="cls-20" d="M269.49,414.22h-4.03c0-4.29-1.43-7.72-4.36-10.48-8.68-8.17-27.23-7.16-27.42-7.15l-.24-4.02c.83-.05,20.47-1.13,30.42,8.23,3.74,3.52,5.64,8.04,5.64,13.42Z"/>
          <path class="cls-20" d="M252.53,414.22h-4.03c0-6.71-1.69-11.6-5.01-14.55-4.2-3.72-9.63-3.1-9.69-3.1l-.49-4c.3-.03,7.3-.83,12.85,4.08,4.23,3.74,6.37,9.65,6.37,17.56Z"/>
        </g>
        <g>
          <path class="cls-20" d="M205.55,414.22c0,3.26-2.65,5.91-5.91,5.91s-5.91-2.65-5.91-5.91,2.65-5.91,5.91-5.91,5.91,2.65,5.91,5.91Z"/>
          <circle class="cls-19" cx="199.64" cy="414.22" r="2.71"/>
        </g>
        <g>
          <circle class="cls-20" cx="216.6" cy="414.22" r="5.91"/>
          <circle class="cls-19" cx="216.6" cy="414.22" r="2.71"/>
        </g>
        <g>
          <circle class="cls-20" cx="250.52" cy="414.22" r="5.91"/>
          <circle class="cls-19" cx="250.52" cy="414.22" r="2.71"/>
        </g>
        <g>
          <circle class="cls-20" cx="267.48" cy="414.22" r="5.91"/>
          <circle class="cls-19" cx="267.48" cy="414.22" r="2.71"/>
        </g>
      </g>
      <g>
        <rect class="cls-19" x="230.52" y="354.46" width="6.08" height="40.73"/>
        <path class="cls-20" d="M228.38,335.68h10.36v19.24c0,2.09-1.69,3.78-3.78,3.78h-2.79c-2.09,0-3.78-1.69-3.78-3.78v-19.24h0Z"/>
        <path class="cls-20" d="M255.87,348.84l-1.94-4.01c-.28-.57-.88-.88-1.48-.82l-5.92-12.23-5.05,2.45,5.92,12.23c-.42.44-.55,1.09-.27,1.67l1.94,4.01c.36.74,1.25,1.05,1.98.69l4.13-2c.74-.36,1.05-1.25.69-1.98Z"/>
        <rect class="cls-20" x="228.38" y="391.42" width="10.36" height="6.31" rx="2.28" ry="2.28"/>
        <path class="cls-20" d="M200.87,331.69h65.37v1.06c0,4.46-3.62,8.09-8.09,8.09h-49.19c-4.46,0-8.09-3.62-8.09-8.09v-1.06h0Z"/>
        <path class="cls-20" d="M221.66,353.48h-14.94c-.56,0-1.01-.45-1.01-1.01s.45-1.01,1.01-1.01h14.65l10.84-6.78c.47-.3,1.09-.15,1.39.32.3.47.15,1.09-.32,1.39l-11.09,6.93c-.16.1-.35.15-.53.15Z"/>
      </g>
    </g>
    <g>
      <polygon class="cls-20" points="219.84 225.97 192.25 225.97 193.61 241.82 221.19 241.8 219.84 225.97"/>
      <g>
        <polygon class="cls-16" points="233.15 194.98 173.27 194.98 176.21 229.38 236.09 229.35 233.15 194.98"/>
        <path class="cls-6" d="M235.49,229.38c-3.79,0-6.95-2.9-7.27-6.68l-1.74-20.41c-.36-4.04,2.63-7.32,6.67-7.32h0c4.04,0,7.61,3.28,7.97,7.32l1.63,19.17c.36,4.26-3,7.91-7.27,7.91h0Z"/>
        <path class="cls-13" d="M175.6,229.38c-3.79,0-6.95-2.9-7.27-6.68l-1.74-20.41c-.36-4.04,2.63-7.32,6.67-7.32h0c4.04,0,7.61,3.28,7.97,7.32l1.63,19.17c.36,4.26-3,7.91-7.27,7.91h0Z"/>
      </g>
      <g>
        <g>
          <polygon class="cls-16" points="237.64 238.43 177.75 238.43 185.72 329.53 245.61 329.53 237.64 238.43"/>
          <path class="cls-16" d="M238.74,334.58l-7.77-88.83c-.36-4.04,2.63-7.32,6.67-7.32h0c4.04,0,7.61,3.28,7.97,7.32l7.77,88.83h-14.64Z"/>
          <path class="cls-13" d="M178.85,334.58l-7.77-88.83c-.36-4.04,2.63-7.32,6.67-7.32h0c4.04,0,7.61,3.28,7.97,7.32l7.77,88.83h-14.64Z"/>
        </g>
        <g>
          <path class="cls-16" d="M245.21,319.94h64.29v14.64h-64.29c-3.57,0-6.48-2.9-6.48-6.48v-1.69c0-3.57,2.9-6.48,6.48-6.48Z" transform="translate(548.24 654.52) rotate(-180)"/>
          <path class="cls-13" d="M185.33,319.94h64.29v14.64h-64.29c-3.57,0-6.48-2.9-6.48-6.48v-1.69c0-3.57,2.9-6.48,6.48-6.48Z" transform="translate(428.47 654.52) rotate(180)"/>
        </g>
      </g>
    </g>
  </g>
  <g>
    <polygon class="cls-9" points="192.62 133.91 203.15 300.42 207.21 304.55 323.49 294.61 308.9 123.97 304.83 119.83 192.62 133.91"/>
    <g>
      <rect class="cls-25" x="195.64" y="124.5" width="116.7" height="171.26" transform="translate(-16.98 22.41) rotate(-4.89)"/>
      <ellipse class="cls-24" cx="253.99" cy="210.13" rx="45.43" ry="75.94" transform="translate(-16.98 22.41) rotate(-4.89)"/>
    </g>
  </g>
  <ellipse class="cls-23" cx="250" cy="420.13" rx="234.45" ry="10.3"/>
  <g>
    <g>
      <polygon class="cls-9" points="36.32 127.02 32.51 299.1 36.32 303.71 156.72 303.71 156.72 127.02 152.91 122.41 36.32 127.02"/>
      <g>
        <rect class="cls-25" x="32.51" y="122.41" width="120.4" height="176.69"/>
        <ellipse class="cls-24" cx="92.71" cy="210.75" rx="46.87" ry="78.35"/>
      </g>
    </g>
    <g class="cls-33">
      <g>
        <g>
          <g>
            <g>
              <path class="cls-21" d="M67.35,207.55s-23.86,27.56-25.04,110.01h9.69s1.83-50.44,18.2-81.16l-2.85-28.85Z"/>
              <path class="cls-21" d="M51.27,315.58c-.18-.33-.52-.33-.76-.16-.05-.04-.09-.07-.15-.09-2.24-.79-4.91-1.49-6.87.3-1.59,1.45-2.55,3.84-3.08,5.89-1.13,4.37-.42,9.17,2.04,12.96.13.2.32.26.51.24.39.84.93,1.58,1.74,2.07.27.16.53.06.68-.13.12.14.24.28.39.39.52.41,1.19.48,1.73.23.46.26,1,.3,1.5-.05.98-.7.71-1.93.53-2.94-.24-1.32-.34-2.66-.3-4,.05-2.07.45-4.11,1.14-6.06.04.33.08.67.12,1,.12.99.14,2.07.4,3.04.19.71.87,1.33,1.63,1,.75-.33.78-1.37.87-2.06.54-3.99-.22-8.07-2.1-11.63Z"/>
            </g>
            <path class="cls-17" d="M80.51,197.77c-34.39,11.04-39.71,109.98-39.71,109.98,4.18,1.15,8.43.89,12.74-.8,3.8-27.53,8.46-52.34,16.1-67.82l10.86-41.36Z"/>
          </g>
          <g>
            <path class="cls-19" d="M126.8,303.8c-26.06,6.81-46.59,4.03-65.17-2.34.92-10.42,4.46-15.3,7.69-25.28.86-2.65,1.34-5.34,1.54-8.06.58-7.88-1.21-15.87-3.1-23.11-2.89-11.05-2.89-15.84,0-26.88,1.69-6.46,11.06-19.38,11.06-19.38.54-.35,1.1-.68,1.69-.98.44-.24.88-.46,1.34-.67,1.27-.58,2.62-1.06,4.01-1.45,5.42-1.52,11.54-1.61,16.69-.33.38.09.74.18,1.11.27.92.21,1.8.42,2.65.66,1.39.38,2.79.75,4.15,1.38,1.13.52,2.24,1.2,3.33,2.22,3.51,3.28,4.64,11.6,5.02,16.28,1.63,19.45-2.05,30.44.28,49.81.21,1.77.53,3.47.91,5.12,2.22,9.65,6.78,18.02,6.78,32.73Z"/>
            <g>
              <path class="cls-24" d="M87.6,195.22s-.58,10.83,2.63,22.88c0,0,6.22-7.8,10.64-23.14l-13.27.26Z"/>
              <path class="cls-17" d="M90.23,218.1l-2.67,20.74-7.68-20.18,5.17-2.97-7.3-11.67,9.84-8.81c-.22,7.46.65,15.08,2.63,22.88Z"/>
              <path class="cls-17" d="M90.23,218.1l-2.67,20.74,12.54-17.57-4.25-4.18,11.63-10.95-6.6-11.18c-1.67,7.27-6.75,16.09-10.64,23.14Z"/>
            </g>
          </g>
          <g>
            <g>
              <path class="cls-21" d="M122.88,208.08s22.72,28.51,20.55,110.94l-9.68-.39s.22-50.47-14.89-81.83l4.02-28.71Z"/>
              <path class="cls-21" d="M131.97,328.2c.06.69.06,1.73.79,2.09.74.36,1.45-.23,1.67-.93.29-.95.36-2.03.52-3.02.06-.33.11-.66.17-.99.61,1.97.92,4.03.89,6.1-.02,1.34-.17,2.68-.46,3.98-.22,1-.54,2.22.41,2.96.48.38,1.03.36,1.49.11.52.26,1.19.23,1.73-.16.15-.11.28-.24.4-.38.14.2.39.31.67.16.83-.46,1.4-1.18,1.82-2,.19.03.38-.03.52-.22,2.62-3.69,3.52-8.46,2.57-12.87-.44-2.06-1.3-4.49-2.83-6.01-1.89-1.87-4.59-1.28-6.85-.58-.06.02-.11.05-.16.09-.23-.17-.58-.19-.76.13-2.03,3.47-2.95,7.52-2.58,11.53Z"/>
            </g>
            <path class="cls-17" d="M110.12,197.77c33.91,12.43,35.2,111.51,35.2,111.51-4.22.98-8.45.55-12.7-1.32-1.16-26.11-7.85-54.17-14.74-72.09-2.99-7.77-5.08-15.87-6.08-24.14l-1.68-13.96Z"/>
          </g>
        </g>
        <g>
          <path class="cls-14" d="M121.78,143.48c3.66,8.39,1.4,16.89-5.04,18.99s-14.63-3-18.29-11.39c-3.66-8.39-1.4-16.89,5.04-18.99,6.44-2.1,14.63,3,18.29,11.39Z"/>
          <path class="cls-19" d="M98.68,139.64s4.01-2.78,8.53-.13c4.52,2.66,2.01,7.46,2.01,7.46l-10.55-7.33Z"/>
          <path class="cls-14" d="M112.41,147.95c-1.06-2.4-3.17-4.35-5.58-5.16-2.67-.89-5.08-2.37-7.43-3.93-5.28-3.52-13.33-3.56-18.82-1.25-8.66,3.64-13.01,13.99-7.83,22.24,5.26,8.36,16,10.97,21.14,19.36,1.12,1.83,2.53,3.89,4.95,3.84,2.22-.04,3.64-2.03,4.78-3.68,3.24-4.67,5.78-9.81,7.6-15.19,1.74-5.12,3.49-11.02,1.19-16.25Z"/>
          <path class="cls-21" d="M102.57,149.66c-5.96-10.93-26.95-7.2-28.58,1.49-3.36,17.88-.81,25.22,4.16,29.45,5.75,4.89,9.45,4.35,9.45,14.62,1.32,5.84,9.91,6.08,13.27-.26-.17-13.61,4.5-23.74,4.5-23.74,0,0-.35-17.05-2.81-21.56Z"/>
          <path class="cls-14" d="M100.33,152.08s-.46,11.77,4.18,14.86l2.96-2.26s-.56-6.83-.8-12.29c-.25-5.47-3.56-8.78-11.18-10.19-7.62-1.41-16.56-.38-19.63,3.81-4.8,6.54-3.24,10.47-3.24,10.47,4.85,0,9.52,1.34,14.36.93,4.84-.41,9.73-2.11,13.36-5.33Z"/>
          <g>
            <g>
              <path class="cls-10" d="M89.75,166.52c0,.74-.6,1.35-1.35,1.35s-1.35-.6-1.35-1.35.6-1.35,1.35-1.35,1.35.6,1.35,1.35Z"/>
              <path class="cls-15" d="M88.4,166.15c0,.27-.22.49-.49.49s-.49-.22-.49-.49.22-.49.49-.49.49.22.49.49Z"/>
            </g>
            <g>
              <path class="cls-10" d="M79.34,166.52c0,.74-.6,1.35-1.35,1.35s-1.35-.6-1.35-1.35.6-1.35,1.35-1.35,1.35.6,1.35,1.35Z"/>
              <path class="cls-15" d="M78,166.15c0,.27-.22.49-.49.49s-.49-.22-.49-.49.22-.49.49-.49.49.22.49.49Z"/>
            </g>
            <path class="cls-14" d="M80.24,161.25c-1.69-1.18-3.89-1.11-5.48.27-.3.26-.35.78-.12,1.11.23.34.67.4.97.14.65-.57,1.49-.82,2.3-.76.41.03.82.14,1.2.33.33.17.66.46,1.04.24.09-.05.17-.13.23-.22.21-.31.19-.89-.13-1.11Z"/>
            <path class="cls-14" d="M85.49,161.25c1.94-1.18,4.45-1.11,6.28.27.34.26.4.78.14,1.11-.27.34-.77.4-1.11.14-.75-.57-1.7-.81-2.63-.75-.47.03-.94.14-1.37.32-.38.16-.76.45-1.19.23-.1-.05-.19-.13-.26-.22-.24-.31-.22-.89.15-1.11Z"/>
            <path class="cls-22" d="M81.01,170.17c-.08,0-.15-.05-.17-.13-.33-1.15.06-1.54.44-1.66.39-.12.86-.02,1.39.3.08.05.11.16.06.24-.05.08-.16.11-.24.06-.44-.27-.81-.36-1.1-.27-.35.11-.42.53-.21,1.23.03.09-.03.19-.12.22-.02,0-.03,0-.05,0Z"/>
            <g>
              <path class="cls-11" d="M86.24,171.21c-.53-.67-1.67.19-3.11.45-1.44.25-2.8-.17-3.07.64-.34,1.02,1.31,3.12,3.66,2.71,2.35-.41,3.19-2.95,2.52-3.79Z"/>
              <path class="cls-22" d="M86.31,172.78c-.46.02-.95.07-1.45.16-1.67.29-3.04.89-3.63,1.5.65.45,1.5.73,2.49.56,1.41-.25,2.27-1.26,2.59-2.21Z"/>
              <path class="cls-15" d="M83.28,172.46c1.28-.22,2.32-.72,2.6-1.48-.61-.13-1.58.47-2.74.68-1.16.2-2.28-.03-2.8.3.52.62,1.66.74,2.95.51Z"/>
            </g>
          </g>
          <g>
            <path class="cls-21" d="M109.97,171.61c-1.8,2.14-4.64,2.73-6.34,1.3s-1.62-4.32.17-6.47c1.8-2.14,4.64-2.73,6.34-1.3,1.7,1.43,1.62,4.32-.17,6.47Z"/>
            <path class="cls-22" d="M108.97,166.19c-.76-.4-1.78-.39-2.73.05-.47.22-.81.48-1.04.81-.31.43-.39.98-.22,1.42.15.4.47.66.75.88.2.16.39.32.5.51.17.29.12.69-.1.93-.22.24-.62.32-.92.18-.18-.08-.39,0-.47.17-.08.18,0,.39.17.47.19.09.4.13.61.13.42,0,.84-.17,1.12-.48.43-.47.5-1.21.18-1.76-.17-.3-.43-.51-.67-.7-.23-.19-.45-.37-.54-.59-.09-.22-.03-.52.14-.76.07-.1.16-.18.27-.27.35,0,.79.1,1.01.35.25.27.37.67.31,1.03-.03.19.1.37.29.4.02,0,.04,0,.06,0,.17,0,.32-.12.35-.29.1-.58-.08-1.18-.48-1.62-.15-.16-.33-.27-.53-.36.58-.16,1.16-.13,1.6.11.55.29.97,1.04.68,1.65-.08.18,0,.39.17.47.18.08.38,0,.47-.17.41-.89-.04-2.07-.99-2.57Z"/>
          </g>
        </g>
      </g>
    </g>
  </g>
  <g>
    <g>
      <polygon class="cls-9" points="348.97 127.02 345.16 299.1 348.97 303.71 469.37 303.71 469.37 127.02 465.56 122.41 348.97 127.02"/>
      <g>
        <rect class="cls-25" x="345.16" y="122.41" width="120.4" height="176.69"/>
        <ellipse class="cls-24" cx="405.36" cy="210.75" rx="46.87" ry="78.35"/>
      </g>
    </g>
    <g class="cls-32">
      <g>
        <g>
          <g>
            <g>
              <path class="cls-2" d="M432.49,207.1s23.82,28.02,25,110.46h-9.69s-1.83-50.44-18.2-81.16l2.89-29.31Z"/>
              <path class="cls-2" d="M446.41,327.2c.09.68.13,1.73.87,2.06.76.33,1.44-.29,1.63-1,.25-.97.27-2.05.4-3.04.04-.33.08-.67.12-1,.69,1.95,1.08,3.99,1.14,6.06.04,1.34-.06,2.68-.3,4-.18,1.01-.45,2.24.53,2.94.5.36,1.04.31,1.5.05.54.24,1.2.18,1.72-.23.14-.11.27-.25.39-.39.15.19.41.3.68.13.81-.49,1.35-1.23,1.74-2.07.19.02.38-.04.51-.24,2.47-3.79,3.17-8.59,2.04-12.96-.53-2.04-1.48-4.43-3.08-5.89-1.97-1.79-4.63-1.09-6.87-.3-.06.02-.11.06-.15.09-.24-.16-.58-.17-.76.16-1.88,3.55-2.64,7.64-2.1,11.63Z"/>
            </g>
            <g>
              <path class="cls-8" d="M459.9,311.88h-13.66s-4.24-53.05-16.64-75.48l15.15-7.87s12.08,39.68,15.15,83.35Z"/>
              <path class="cls-16" d="M425.15,198.82c10.94,4.74,21.71,30.03,21.71,30.03l-17.16,10.28-4.56-40.31Z"/>
            </g>
          </g>
          <g>
            <g>
              <path class="cls-2" d="M378.22,207.1s-23.82,28.02-25,110.46h9.69s1.83-50.44,18.2-81.16l-2.89-29.31Z"/>
              <path class="cls-2" d="M362.2,315.58c-.18-.33-.52-.33-.76-.16-.05-.04-.09-.07-.15-.09-2.24-.79-4.91-1.49-6.87.3-1.59,1.45-2.55,3.84-3.08,5.89-1.13,4.37-.42,9.17,2.04,12.96.13.2.32.26.51.24.39.84.93,1.58,1.74,2.07.27.16.53.06.68-.13.12.14.24.28.39.39.52.41,1.19.48,1.73.23.46.26,1,.3,1.5-.05.98-.7.71-1.93.53-2.94-.24-1.32-.34-2.66-.3-4,.05-2.07.45-4.11,1.14-6.06.04.33.08.67.12,1,.12.99.14,2.07.4,3.04.19.71.87,1.33,1.63,1,.75-.33.78-1.37.87-2.06.54-3.99-.22-8.07-2.1-11.63Z"/>
            </g>
            <g>
              <path class="cls-8" d="M350.81,311.88h13.66s4.24-53.05,16.64-75.48l-16.64-5.07s-10.58,36.88-13.66,80.55Z"/>
              <path class="cls-16" d="M385.13,198.82c-10.94,4.74-22.68,31.53-22.68,31.53l19.01,9.21,3.67-40.74Z"/>
            </g>
          </g>
          <g>
            <path class="cls-13" d="M435.34,300.8s-18.07,9.05-60.4.1c3.29-44.45,10.2-102.08,10.2-102.08l8.47-2.75,4.98-1.63h13.21l4.58,1.51,8.77,2.88s7.69,49.65,10.2,101.98Z"/>
            <ellipse class="cls-16" cx="405.14" cy="241.63" rx="10.5" ry="17.48"/>
            <path class="cls-16" d="M416.37,195.94c-1.23,2.44-4.44,7-11.23,7-7.22,0-10.45-4.77-11.53-6.88l4.98-1.63h13.21l4.58,1.51Z"/>
          </g>
          <g>
            <path class="cls-27" d="M383.49,219.85c-1.4,5.55-2.38,11.2-2.93,16.9-.06.65.96.65,1.02,0,.54-5.61,1.51-11.17,2.89-16.63.16-.64-.82-.91-.98-.27Z"/>
            <path class="cls-27" d="M426.78,219.85c1.4,5.55,2.38,11.2,2.93,16.9.06.65-.96.65-1.02,0-.54-5.61-1.51-11.17-2.89-16.63-.16-.64.82-.91.98-.27Z"/>
          </g>
        </g>
        <g>
          <path class="cls-20" d="M413.93,141.83c3.79-.81,7.81,1.77,9.41,5.41,2.3,5.23.55,11.13-1.19,16.25-1.83,5.37-4.36,10.52-7.6,15.19-1.14,1.65-2.56,3.64-4.78,3.68-2.42.05-3.82-2.01-4.95-3.84-5.14-8.39-15.88-11.01-21.14-19.36-.64-1.01-1.09-1.98-1.26-3.17-2.04-1.61-3.01-4.41-3.19-7.01-.15-2.11.04-4.33,1.08-6.18,1.04-1.84,2.81-3.15,4.68-4.14,3.79-2.02,8.09-2.97,12.39-3.1,2.79-.08,5.75.23,8,1.88-.36-1.41-1.06-2.61-2.1-3.64,4.51.78,8.91,3.8,10.66,8.04Z"/>
          <path class="cls-2" d="M413.49,148.95c-5.96-10.94-26.95-7.2-28.58,1.49-3.36,17.88-.81,25.22,4.16,29.45,5.75,4.89,9.51,4.27,9.51,14.54,2.17,5.47,10.52,6.21,13.21,0-.17-13.61,4.5-23.92,4.5-23.92,0,0-.35-17.05-2.81-21.56Z"/>
          <path class="cls-20" d="M411.25,151.38c-3.6,5.19-10.85,4-10.85,4l4.18-3.6s-10.36,6.13-21.05,4.01c0,0-1.57-3.92,3.24-10.47,3.07-4.19,12.01-5.22,19.63-3.81,7.62,1.41,10.93,4.72,11.18,10.19.25,5.47.8,12.29.8,12.29l-2.96,2.26c-4.64-3.09-4.18-14.86-4.18-14.86Z"/>
          <g>
            <g>
              <path class="cls-10" d="M400.67,165.81c0,.74-.6,1.35-1.35,1.35s-1.35-.6-1.35-1.35.6-1.35,1.35-1.35,1.35.6,1.35,1.35Z"/>
              <path class="cls-15" d="M399.33,165.44c0,.27-.22.49-.49.49s-.49-.22-.49-.49.22-.49.49-.49.49.22.49.49Z"/>
            </g>
            <g>
              <path class="cls-10" d="M390.27,165.81c0,.74-.6,1.35-1.35,1.35s-1.35-.6-1.35-1.35.6-1.35,1.35-1.35,1.35.6,1.35,1.35Z"/>
              <path class="cls-15" d="M388.92,165.44c0,.27-.22.49-.49.49s-.49-.22-.49-.49.22-.49.49-.49.49.22.49.49Z"/>
            </g>
            <path class="cls-20" d="M391.17,160.54c-1.69-1.18-3.89-1.11-5.48.27-.3.26-.35.78-.12,1.11.23.34.67.4.97.14.65-.57,1.49-.82,2.3-.76.41.03.82.14,1.2.33.33.17.66.46,1.04.24.09-.05.17-.13.23-.22.21-.31.19-.89-.13-1.11Z"/>
            <path class="cls-20" d="M396.41,160.54c1.94-1.18,4.45-1.11,6.28.27.34.26.4.78.14,1.11-.27.34-.77.4-1.11.14-.75-.57-1.7-.81-2.63-.75-.47.03-.94.14-1.37.32-.38.16-.76.45-1.19.23-.1-.05-.19-.13-.26-.22-.24-.31-.22-.89.14-1.11Z"/>
            <path class="cls-4" d="M393.6,173.46c-.73,0-1.5-.16-2.23-.55-.34-.18-.48-.61-.3-.95.18-.34.6-.48.95-.3,1.78.93,3.76-.03,4.33-.8.23-.31.67-.38.98-.15s.38.67.15.98c-.67.91-2.2,1.77-3.89,1.77Z"/>
            <path class="cls-4" d="M391.94,169.46c-.08,0-.15-.05-.17-.13-.33-1.15.06-1.54.44-1.66.39-.12.86-.02,1.39.3.08.05.11.16.06.24-.05.08-.16.11-.24.06-.44-.27-.81-.36-1.1-.27-.35.11-.42.53-.21,1.23.03.09-.03.19-.12.22-.02,0-.03,0-.05,0Z"/>
          </g>
          <g>
            <path class="cls-2" d="M420.9,170.91c-1.8,2.15-4.64,2.73-6.34,1.3-1.7-1.43-1.62-4.32.17-6.47,1.8-2.14,4.64-2.73,6.34-1.3,1.7,1.43,1.62,4.32-.17,6.47Z"/>
            <path class="cls-4" d="M419.9,165.49c-.76-.4-1.78-.39-2.73.05-.47.22-.81.48-1.04.81-.31.43-.39.98-.22,1.42.15.4.47.66.75.88.2.16.39.32.5.51.17.29.12.69-.1.93-.22.24-.62.32-.92.18-.18-.08-.38,0-.47.17-.08.18,0,.39.17.47.19.09.4.13.61.13.42,0,.84-.17,1.12-.48.43-.47.5-1.21.18-1.76-.17-.3-.43-.51-.67-.7-.23-.19-.45-.37-.54-.59-.09-.22-.03-.52.14-.76.07-.1.16-.18.27-.27.35,0,.79.1,1.01.35.25.27.37.67.31,1.03-.03.19.1.37.29.4.02,0,.04,0,.06,0,.17,0,.32-.12.35-.29.1-.58-.08-1.18-.48-1.62-.15-.16-.33-.27-.53-.36.58-.16,1.16-.13,1.6.11.55.29.97,1.04.68,1.65-.08.18,0,.39.17.47.18.08.38,0,.47-.17.41-.89-.04-2.07-.99-2.57Z"/>
          </g>
        </g>
      </g>
    </g>
  </g>
  <g>
    <g>
      <polygon class="cls-9" points="231.1 420.13 159.3 420.13 157.24 417.38 172.35 377.57 242.08 374.83 244.14 377.57 231.1 420.13"/>
      <polygon class="cls-25" points="229.03 417.38 157.24 417.38 170.28 374.83 242.08 374.83 229.03 417.38"/>
    </g>
    <text class="cls-35" transform="translate(170.07 400.45) scale(.96) skewX(-17.04)"><tspan class="cls-31" x="0" y="0">V</tspan><tspan class="cls-1" x="7.78" y="0">A</tspan><tspan class="cls-29" x="17.06" y="0">C</tspan><tspan x="26.13" y="0">ANT</tspan></text>
  </g>
  <g>
    <g>
      <path class="cls-19" d="M422.49,360.06c-1.61-1.7-4.17-1.15-6.24-.32-4.68,1.87-9.09,4.63-13,8.13-.78.7-1.95,1.43-2.66.62-.48-.54-.36-1.45-.14-2.18.97-3.24,3.32-5.72,5.85-7.56,2.54-1.83,5.33-3.16,7.89-4.96,2.55-1.8,4.94-4.2,6.02-7.41,1.08-3.2.5-7.3-1.94-9.3-2.34-1.91-5.69-1.4-8.12.36-2.43,1.76-4.15,4.52-5.8,7.21-.97,1.58-1.94,3.15-2.91,4.73-.18.29-.37.6-.65.77-.74.45-1.67-.36-1.83-1.3-.17-.93.18-1.88.49-2.76.98-2.79,1.76-5.72,1.84-8.72.07-3.01-.62-6.11-2.3-8.42-1.68-2.31-5.01-3.69-7.58-3.06,0,0,0,0,0,0-2.57-.63-5.9.75-7.58,3.06-1.68,2.31-2.37,5.42-2.3,8.42.07,3.01.85,5.93,1.84,8.72.31.88.65,1.83.49,2.76-.17.93-1.09,1.74-1.83,1.3-.28-.17-.47-.47-.65-.77-.97-1.58-1.94-3.15-2.91-4.73-1.65-2.69-3.37-5.45-5.8-7.21-2.43-1.76-5.78-2.27-8.12-.36-2.44,2-3.02,6.1-1.94,9.3,1.08,3.2,3.46,5.61,6.02,7.41,2.55,1.8,5.35,3.12,7.89,4.96,2.54,1.83,4.88,4.31,5.85,7.56.22.73.33,1.64-.14,2.18-.7.8-1.87.08-2.66-.62-3.9-3.5-8.31-6.26-13-8.13-2.07-.83-4.63-1.38-6.24.32-.93.98-1.28,2.54-1.12,3.97s.79,2.75,1.58,3.88c2.4,3.45,6.15,5.27,9.85,6.47,3.71,1.2,7.56,1.91,11.05,3.78s6.68,5.17,7.4,9.5c.22,1.32.2,2.67.42,3.98h0c.37,2.14,3.45,2.14,3.82,0h0c.22-1.31.21-2.67.42-3.98.72-4.33,3.91-7.64,7.4-9.5s7.35-2.58,11.05-3.78c3.71-1.2,7.46-3.02,9.85-6.47.79-1.13,1.42-2.45,1.58-3.88s-.19-2.99-1.12-3.97Z"/>
      <path class="cls-17" d="M419.08,363.37c-.22-.28-.63-.33-.91-.11-.15.12-14.55,11.37-26.12,11.79v-11.68c14.8-7.59,23.89-21,23.98-21.14.2-.3.12-.7-.18-.9-.3-.2-.7-.12-.9.18-.09.13-8.75,12.91-22.89,20.39v-32.17c0-.36-.29-.65-.65-.65s-.65.29-.65.65v32.17c-14.14-7.48-22.81-20.26-22.89-20.39-.2-.3-.6-.38-.9-.18-.3.2-.38.61-.18.9.09.13,9.18,13.55,23.98,21.14v11.68c-11.57-.42-25.97-11.67-26.12-11.79-.28-.22-.69-.17-.91.11-.22.28-.17.69.11.91.61.48,14.92,11.67,26.92,12.07v16.21c0,.36.29.65.65.65s.65-.29.65-.65v-16.21c12-.4,26.31-11.58,26.92-12.07.28-.22.33-.63.11-.91Z"/>
    </g>
    <g>
      <polygon class="cls-26" points="409.97 388.5 409.23 392.39 408.92 394.09 408.2 397.88 407.88 399.58 407.17 403.37 406.85 405.06 406.13 408.87 405.82 410.55 405.1 414.35 404.79 416.04 404.05 419.93 378.73 419.93 377.99 416.04 377.68 414.35 376.96 410.55 376.65 408.87 375.93 405.06 375.61 403.37 374.9 399.58 374.58 397.88 373.86 394.09 373.55 392.39 372.81 388.5 409.97 388.5"/>
      <g>
        <polygon class="cls-3" points="409.23 392.39 408.92 394.09 373.86 394.09 373.55 392.39 409.23 392.39"/>
        <polygon class="cls-3" points="408.2 397.88 407.88 399.58 374.9 399.58 374.58 397.88 408.2 397.88"/>
        <polygon class="cls-3" points="407.17 403.37 406.85 405.06 375.93 405.06 375.61 403.37 407.17 403.37"/>
        <polygon class="cls-3" points="406.13 408.87 405.82 410.55 376.96 410.55 376.65 408.87 406.13 408.87"/>
        <polygon class="cls-3" points="405.1 414.35 404.79 416.04 377.99 416.04 377.68 414.35 405.1 414.35"/>
      </g>
    </g>
  </g>
  <g>
    <g>
      <path class="cls-3" d="M122.31,360.22c18.78-43.53,48.49-54.77,48.49-54.77,0,0-7.56,30.85-48.49,54.77Z"/>
      <path class="cls-26" d="M122.31,360.22c7.82-46.76,33.98-64.77,33.98-64.77,0,0,.04,31.76-33.98,64.77Z"/>
      <path class="cls-3" d="M122.31,360.22c-3.59-47.27,17.5-71.02,17.5-71.02,0,0,7.64,30.83-17.5,71.02Z"/>
      <path class="cls-26" d="M122.31,360.22c14.79-45.04,0-73.15,0-73.15,0,0-14.79,28.11,0,73.15Z"/>
      <path class="cls-3" d="M122.31,360.22c3.59-47.27-17.5-71.02-17.5-71.02,0,0-7.64,30.83,17.5,71.02Z"/>
      <path class="cls-26" d="M122.31,360.22c-7.82-46.76-33.98-64.77-33.98-64.77,0,0-.04,31.76,33.98,64.77Z"/>
      <path class="cls-3" d="M122.31,360.22c-18.78-43.53-48.49-54.77-48.49-54.77,0,0,7.56,30.85,48.49,54.77Z"/>
    </g>
    <g>
      <path class="cls-13" d="M151.35,388.16c-.8,9.4-4.57,20.15-13.58,31.77h-30.93c-8.83-11.41-12.63-21.97-13.53-31.22-2.25-23.15,13.53-38.22,13.53-38.22h30.93s15.53,14.83,13.58,37.67Z"/>
      <path class="cls-16" d="M151.35,388.16c-.8,9.4-4.57,20.15-13.58,31.77h-30.93c-8.83-11.41-12.63-21.97-13.53-31.22,9.85,6.07,33.08,16.42,58.03-.55Z"/>
    </g>
  </g>
  <g class="cls-30">
    <g class="cls-34">
      <g>
        <g>
          <g>
            <g>
              <path class="cls-18" d="M230.31,206.92s-20.22,28.37-14.68,106.28l9.14-.78s-2.35-47.76,10.63-78.07l-5.09-27.43Z"/>
              <path class="cls-18" d="M223.94,310.61c-.19-.3-.52-.27-.73-.09-.05-.03-.09-.06-.15-.07-2.18-.57-4.75-1.01-6.46.84-1.39,1.5-2.09,3.83-2.43,5.8-.71,4.22.34,8.69,2.98,12.07.14.18.33.22.5.19.43.76,1,1.42,1.81,1.82.27.13.5.01.63-.18.12.13.25.24.4.34.53.35,1.16.35,1.65.08.45.21.97.21,1.41-.17.87-.74.51-1.88.26-2.82-.33-1.22-.53-2.48-.61-3.75-.12-1.96.09-3.92.58-5.81.07.31.13.62.2.93.2.92.3,1.94.62,2.83.23.65.93,1.19,1.62.81.68-.37.63-1.36.66-2.01.19-3.81-.86-7.6-2.93-10.8Z"/>
            </g>
            <path class="cls-26" d="M236.16,198.55c-9.95,5.36-18.86,31.59-18.86,31.59l19.39,7.43-.53-39.02Z"/>
          </g>
          <g>
            <g>
              <path class="cls-18" d="M281.53,202.54s24.74,24.52,32.51,102.25l-9.14.78s-5.8-47.46-23.73-75.13l.36-27.89Z"/>
              <path class="cls-18" d="M304.37,314.78c.14.64.26,1.62.99,1.87.74.25,1.34-.39,1.46-1.07.16-.93.09-1.95.13-2.9.01-.32.02-.63.04-.95.81,1.78,1.34,3.68,1.56,5.63.14,1.26.16,2.53.04,3.8-.09.96-.25,2.15.73,2.73.5.3,1.01.21,1.42-.07.52.19,1.15.07,1.61-.36.13-.12.24-.26.34-.4.16.17.41.25.65.07.72-.53,1.18-1.27,1.47-2.1.18,0,.36-.07.46-.27,2.02-3.78,2.3-8.37.88-12.4-.66-1.89-1.76-4.06-3.38-5.31-2-1.53-4.46-.66-6.51.27-.06.03-.1.06-.14.1-.24-.14-.56-.11-.7.21-1.49,3.51-1.88,7.42-1.05,11.14Z"/>
            </g>
            <path class="cls-26" d="M273.93,195.32c10.71,3.59,22.92,26.59,22.92,26.59l-15.36,11.09-7.56-37.68Z"/>
          </g>
          <g>
            <path class="cls-26" d="M291.78,290.75s-16.33,10-57,4.97c-.49-42.22,1.39-97.18,1.39-97.18l9.43-3.99,2.9-1.23,12.47-1.07,3.38.8,9.58,2.26s11.27,46.24,17.86,95.43Z"/>
            <path class="cls-3" d="M264.35,193.06c-.77,1.99-3.23,6.81-9,7.3-6.28.54-9.08-4.4-9.74-5.81l2.9-1.23,12.47-1.07,3.38.8Z"/>
            <path class="cls-13" d="M263.28,218.74l9.88-.84s1.22,12.44-3.87,12.88-6-12.03-6-12.03Z"/>
          </g>
          <g>
            <path class="cls-3" d="M235.1,235.54s-.02,0-.03,0c-.13,0-.24-.12-.24-.25,0-.16.47-16.08,1.31-20.75.02-.13.15-.21.28-.2.13.02.22.15.2.28-.83,4.63-1.29,20.51-1.3,20.67,0,.12-.1.22-.22.23Z"/>
            <path class="cls-3" d="M281.27,231.59c-.12.01-.23-.07-.26-.19-.03-.16-3.19-15.73-4.79-20.15-.05-.13.02-.27.15-.31.13-.04.27.02.31.15,1.61,4.45,4.78,20.07,4.81,20.22.03.13-.06.26-.19.29,0,0-.02,0-.03,0Z"/>
          </g>
        </g>
        <g>
          <path class="cls-5" d="M268.25,162.22c-1.29,5.22-3.27,10.28-5.95,14.95-.94,1.65-2.12,3.64-4.22,3.86-2.28.24-3.77-1.59-4.98-3.23-5.53-7.51-16.31-9.28-21.95-16.75-1.81-2.56-3.26-5.42-3.95-8.48-.69-3.06-.58-6.35.62-9.25,1.2-2.9,3.55-5.37,6.51-6.42.82-.29,1.81-.45,2.5.09.5.39.7,1.08.66,1.71s-.27,1.24-.5,1.83c1.78-2.45,3.57-5.26,6.1-6.91.84-.55,1.77-1,2.76-1.11,1-.11,2.07.18,2.75.92.68.74.27,2.7-.34,3.49,1.69-1.19,4.3-2.65,6.32-3.07.88-.18,1.83-.28,2.65.08.86.38,1.44,1.22,1.7,2.12s-.32,2.59-.66,3.36c1.75-.43,3.55-.86,5.28-.35,1.86.54,3.29,2.09,4.11,3.84.82,1.75,1.1,3.7,1.29,5.62.45,4.49.38,9.32-.7,13.7Z"/>
          <path class="cls-18" d="M258.9,149.19c-6.51-9.84-26.02-4.62-26.86,3.71-1.72,17.15,1.27,23.87,6.31,27.46,5.82,4.15,9.32,3.26,10.15,12.96,2.49,4.99,10.43,5.02,12.47-1.07-1.25-12.83,2.32-22.94,2.32-22.94,0,0-1.7-16.07-4.39-20.12Z"/>
          <path class="cls-5" d="M230.93,154.04c.27-1.6.95-3.65,2.47-6.13,2.56-4.2,10.92-5.9,18.22-5.18,7.31.71,10.7,3.57,11.38,8.71.68,5.14,1.75,11.54,1.75,11.54l-2.61,2.37c-4.63-2.55-5.15-13.69-5.15-13.69-2.37,1.89-5.14,3.5-8.09,4.21-.58.14-1.18.25-1.78.17-.59-.08-1.18-.37-1.5-.88-.44-.7-.27-1.65.15-2.37-1.91,1.37-3.85,2.67-5.96,3.69-.74.35-1.57.66-2.35.41-.6-.19-1.07-.71-1.28-1.31-.21-.6-.18-1.26,0-1.86-.96.86-2.04,1.64-3.11,2.36-.43.29-.94.59-1.45.48-.46-.1-.81-.52-.91-.98-.11-.46.15-1.09.23-1.55Z"/>
          <g>
            <g>
              <path class="cls-20" d="M248.17,166.14c.06.7-.46,1.32-1.16,1.38-.7.06-1.32-.46-1.38-1.16-.06-.7.46-1.32,1.16-1.38.7-.06,1.32.46,1.38,1.16Z"/>
              <path class="cls-15" d="M246.87,165.9c.02.26-.17.48-.43.5-.26.02-.48-.17-.5-.43-.02-.26.17-.48.43-.5.26-.02.48.17.5.43Z"/>
            </g>
            <g>
              <path class="cls-20" d="M238.34,166.98c.06.7-.46,1.32-1.16,1.38-.7.06-1.32-.46-1.38-1.16-.06-.7.46-1.32,1.16-1.38.7-.06,1.32.46,1.38,1.16Z"/>
              <path class="cls-15" d="M237.04,166.74c.02.26-.17.48-.43.5-.26.02-.48-.17-.5-.43-.02-.26.17-.48.43-.5.26-.02.48.17.5.43Z"/>
            </g>
            <path class="cls-5" d="M238.77,161.94c-1.69-.97-3.76-.73-5.15.7-.26.27-.27.76-.03,1.06.25.31.67.32.93.06.57-.59,1.34-.89,2.11-.9.39,0,.78.07,1.15.21.33.13.66.38,1,.14.08-.06.15-.13.2-.22.17-.31.11-.85-.21-1.04Z"/>
            <path class="cls-5" d="M243.72,161.51c1.73-1.27,4.12-1.41,5.95-.25.34.22.44.7.22,1.04-.22.35-.69.44-1.04.22-.75-.47-1.67-.63-2.55-.49-.44.07-.87.21-1.27.42-.35.18-.68.48-1.1.32-.1-.04-.19-.11-.26-.18-.25-.27-.28-.82.05-1.06Z"/>
            <path class="cls-7" d="M242.11,173.93c-.69.06-1.43-.03-2.15-.34-.34-.14-.5-.53-.36-.87.14-.34.53-.5.87-.36,1.76.74,3.55-.33,4.02-1.11.19-.31.6-.41.91-.22.31.19.41.6.22.91-.56.92-1.93,1.85-3.53,1.98Z"/>
            <path class="cls-7" d="M240.22,170.29c-.07,0-.14-.04-.17-.11-.41-1.06-.07-1.46.28-1.6.36-.15.81-.09,1.34.18.08.04.11.14.07.22-.04.08-.14.11-.22.07-.44-.22-.79-.28-1.06-.17-.32.13-.35.53-.1,1.18.03.09,0,.18-.1.22-.01,0-.03,0-.05.01Z"/>
          </g>
          <g>
            <path class="cls-18" d="M267.67,169.32c-1.52,2.17-4.16,2.95-5.88,1.74-1.72-1.21-1.88-3.95-.36-6.12,1.52-2.17,4.16-2.95,5.88-1.74,1.72,1.21,1.88,3.95.36,6.12Z"/>
            <path class="cls-7" d="M266.29,164.28c-.75-.32-1.72-.22-2.57.27-.43.24-.73.52-.92.85-.26.43-.29.96-.1,1.36.18.36.5.58.78.77.2.14.4.27.52.44.18.26.17.64-.02.89-.19.25-.56.35-.85.25-.17-.06-.36.03-.43.2-.06.17.03.36.2.43.19.07.39.09.59.08.39-.03.77-.23,1.02-.55.37-.48.38-1.18.03-1.67-.19-.27-.45-.45-.68-.6-.23-.16-.46-.31-.55-.51-.1-.2-.07-.49.07-.73.06-.1.14-.19.23-.28.33-.03.75.04.98.24.26.24.4.6.37.95-.01.18.12.34.31.36.02,0,.04,0,.05,0,.16-.01.29-.14.3-.31.04-.55-.17-1.11-.58-1.49-.15-.14-.34-.23-.53-.3.54-.19,1.08-.21,1.52-.03.54.23.99.9.78,1.5-.06.17.03.36.2.43.17.06.36-.03.43-.2.32-.87-.21-1.95-1.14-2.34Z"/>
          </g>
        </g>
      </g>
    </g>
  </g>
  <g>
    <g>
      <rect class="cls-19" x="342.36" y="288.14" width="12.6" height="33.81" transform="translate(203.17 -134.79) rotate(30.51)"/>
      <path class="cls-26" d="M325.71,304.51h3.14c4.43,0,8.02,3.59,8.02,8.02v57.6c0,4.43-3.59,8.02-8.02,8.02h-3.14c-4.43,0-8.02-3.59-8.02-8.02v-57.6c0-4.43,3.59-8.02,8.02-8.02Z" transform="translate(218.63 -118.9) rotate(30.51)"/>
    </g>
    <g>
      <g class="cls-28">
        <path class="cls-24" d="M434.47,231.19l-8.76,3.37-83.98,32.33-8.75,3.37c-1.32-2.89-2.39-5.91-3.2-9.05-2.45-9.5-2.31-19.25.31-28.44l11.66-4.49,58.07-22.37,11.64-4.48c11.05,6.93,19.13,17.37,23.01,29.76Z"/>
        <path class="cls-24" d="M436.87,251.7l-9.92,3.81-72.05,27.75-9.9,3.81c-2.67-2.52-5.07-5.31-7.16-8.31l9.05-3.49,80.62-31.03,9.07-3.5c.47,3.66.56,7.32.29,10.96Z"/>
      </g>
      <path class="cls-17" d="M436.58,240.74c-.29-2.28-.73-4.54-1.31-6.79-.24-.94-.5-1.85-.8-2.76-3.89-12.39-11.96-22.83-23.01-29.76-.42-.27-.84-.53-1.28-.78-25.87-15.25-59.33-6.6-74.58,19.27-2.41,4.08-4.25,8.39-5.51,12.84-2.62,9.19-2.76,18.95-.31,28.44.81,3.14,1.88,6.16,3.2,9.05,1.36,2.99,2.98,5.85,4.85,8.52,2.09,3,4.49,5.79,7.16,8.31,2.96,2.8,6.26,5.3,9.88,7.43,8.66,5.11,18.17,7.53,27.56,7.53,18.67,0,36.88-9.59,47.02-26.8,4.3-7.29,6.8-15.31,7.42-23.53.27-3.64.18-7.3-.29-10.96ZM421.4,270.49c-12.63,21.43-40.35,28.6-61.78,15.97-1.65-.98-3.23-2.05-4.73-3.19-3.02-2.34-5.71-5.02-8.01-7.99-2.03-2.6-3.75-5.4-5.15-8.39-1.21-2.56-2.17-5.24-2.89-8.02-2.68-10.35-1.64-21.06,2.91-30.59.57-1.23,1.21-2.43,1.9-3.6,8.4-14.25,23.49-22.2,38.95-22.2,5.8,0,11.65,1.12,17.22,3.44,1.91.79,3.78,1.72,5.61,2.8,10.16,5.98,17.12,15.35,20.28,25.85.95,3.15,1.56,6.4,1.8,9.69.28,3.74.1,7.52-.56,11.27-.91,5.14-2.74,10.21-5.55,14.97Z"/>
    </g>
  </g>
</svg>