<?xml version="1.0" encoding="UTF-8"?>
<svg xmlns="http://www.w3.org/2000/svg" xmlns:xlink="http://www.w3.org/1999/xlink" viewBox="0 0 500 500">
  <defs>
    <style>
      .cls-1 {
        fill: #ad2727;
      }

      .cls-1, .cls-2, .cls-3, .cls-4, .cls-5, .cls-6, .cls-7, .cls-8, .cls-9, .cls-10, .cls-11, .cls-12, .cls-13, .cls-14, .cls-15, .cls-16, .cls-17, .cls-18, .cls-19, .cls-20, .cls-21, .cls-22, .cls-23, .cls-24, .cls-25 {
        stroke-width: 0px;
      }

      .cls-2, .cls-5, .cls-26, .cls-25 {
        mix-blend-mode: multiply;
      }

      .cls-2, .cls-20 {
        fill: #cddffa;
      }

      .cls-3 {
        mix-blend-mode: overlay;
      }

      .cls-3, .cls-10 {
        fill: #fff;
      }

      .cls-3, .cls-24 {
        opacity: .3;
      }

      .cls-4 {
        fill: #ffb31a;
      }

      .cls-5, .cls-16 {
        fill: #fff4e9;
      }

      .cls-27 {
        isolation: isolate;
      }

      .cls-6 {
        fill: #1976d2;
      }

      .cls-8 {
        fill: none;
      }

      .cls-9, .cls-17 {
        fill: #2196f3;
      }

      .cls-28 {
        clip-path: url(#clippath-1);
      }

      .cls-11 {
        fill: #1565c0;
      }

      .cls-12 {
        fill: #ff931d;
      }

      .cls-13 {
        fill: #1a0f24;
      }

      .cls-14 {
        fill: #fea384;
      }

      .cls-29 {
        clip-path: url(#clippath);
      }

      .cls-15 {
        fill: #c16b5b;
      }

      .cls-17 {
        opacity: .15;
      }

      .cls-18 {
        fill: #ffe6ca;
      }

      .cls-19 {
        fill: #0d47a1;
      }

      .cls-21 {
        fill: #d83e3a;
      }

      .cls-22 {
        fill: #0d1b35;
      }

      .cls-23, .cls-25 {
        fill: #ffc82e;
      }

      .cls-24 {
        fill: #385d93;
      }
    </style>
    <clipPath id="clippath">
      <rect class="cls-8" x="266.64" y="130.82" width="37.07" height="47.92" transform="translate(61.51 -80.28) rotate(17.93)"/>
    </clipPath>
    <clipPath id="clippath-1">
      <rect class="cls-8" x="102.15" y="275.74" width="37.44" height="48.4" transform="translate(-114.66 78.35) rotate(-24.8)"/>
    </clipPath>
  </defs>
  <g class="cls-27">
    <g id="OBJECTS">
      <g>
        <circle class="cls-17" cx="248.55" cy="250" r="211.95"/>
        <g>
          <path class="cls-2" d="M329.63,189.39l-1.69-2.31-84.78-116.01-1.69-2.31c-3.26-4.45-9.51-5.43-13.96-2.17l-2.64,1.93L44.8,200.12l-2.64,1.93c-.56.41-1.06.86-1.51,1.35-.31.34-.59.71-.85,1.09-.81,1.19-1.35,2.53-1.59,3.93-.01.08-.03.17-.04.25-.09.6-.13,1.21-.1,1.82.01.32.04.64.08.96.09.64.23,1.27.45,1.89.32.93.78,1.83,1.39,2.66l1.69,2.31,48.13,65.86,36.65,50.15s0,0,0,0l1.69,2.31c3.26,4.45,9.51,5.43,13.96,2.17l2.64-1.93,180.08-131.6,2.64-1.93c4.45-3.26,5.43-9.51,2.17-13.96Z"/>
          <g>
            <path class="cls-12" d="M229.68,56.34l-2.64,1.93L46.96,189.87l-2.64,1.93c-4.45,3.26-5.43,9.51-2.17,13.96l1.69,2.31,84.78,116.01,1.69,2.31c3.26,4.45,9.51,5.43,13.96,2.17l2.64-1.93,180.08-131.6,2.64-1.93c4.45-3.26,5.43-9.51,2.17-13.96l-1.69-2.31-84.78-116.01-1.69-2.31c-3.26-4.45-9.51-5.43-13.96-2.17Z"/>
            <path class="cls-4" d="M325.29,192.72l-182.72,133.53c-4.45,3.26-10.7,2.28-13.96-2.17l-86.47-118.32c-3.26-4.45-2.28-10.7,2.17-13.96L227.04,58.27c4.45-3.26,10.7-2.28,13.96,2.17l86.47,118.32c3.26,4.45,2.28,10.7-2.17,13.96Z"/>
            <circle class="cls-23" cx="183.8" cy="192.99" r="25.27" transform="translate(-10.32 10.39) rotate(-3.15)"/>
          </g>
        </g>
        <g>
          <path class="cls-2" d="M424.74,241.5c2.2-3.78.94-8.63-2.83-10.85l-16.8-9.92c2.73-4.63-.26-11.45-6.68-15.24-6.42-3.79-13.84-3.11-16.57,1.51l-16.8-9.92c-3.77-2.23-8.62-.99-10.87,2.76l-38.66-22.83-113.81,192.73,147.87,87.32,113.81-192.73-38.66-22.83Z"/>
          <g>
            <rect class="cls-9" x="243.79" y="192.85" width="171.72" height="223.82" transform="translate(200.77 -125.29) rotate(30.56)"/>
            <rect class="cls-18" x="256.85" y="206.95" width="145.6" height="195.62" transform="translate(200.77 -125.29) rotate(30.56)"/>
            <g>
              <path class="cls-22" d="M351.7,199.99h66.02c4.39,0,7.96,3.57,7.96,7.96v15.15h-81.94v-15.15c0-4.39,3.57-7.96,7.96-7.96Z" transform="translate(161.02 -166.23) rotate(30.56)"/>
              <ellipse class="cls-22" cx="390.58" cy="201.59" rx="9.73" ry="13.5" transform="translate(18.39 435.4) rotate(-59.44)"/>
            </g>
          </g>
        </g>
        <g>
          <g class="cls-26">
            <path class="cls-20" d="M338.02,54.46l-3.31-5.51c-.95-1.59-3.01-2.1-4.6-1.15l-3.74,2.24c-1.59.95-2.1,3.01-1.15,4.6l3.31,5.51,9.49-5.69Z"/>
            <path class="cls-20" d="M340.02,59.95l.75-.45c.26-.16.35-.5.19-.76l-2.38-3.97c-.16-.26-.5-.35-.76-.19l-9.09,5.45c-.26.16-.35.5-.19.76l2.38,3.97c.16.26.5.35.76.19l8.34-5Z"/>
            <path class="cls-20" d="M424.14,204.33l-3.85-12.7s0,0,0,0h0s-79.32-132.26-79.32-132.26l-8.54,5.12-.95.57,79.32,132.25h0s0,0,0,0l9.58,9.56,6.49,6.48-2.74-9.03ZM413.97,195.42s0,0,0,0h0s0,0,0,0ZM417.13,193.53s0,0,0,0h0s0,0,0,0Z"/>
          </g>
          <g>
            <rect class="cls-23" x="373.09" y="48.26" width="11.06" height="154.22" transform="translate(769.73 47.26) rotate(150.39)"/>
            <rect class="cls-16" x="333.24" y="52.96" width="11.71" height="5.74" rx=".55" ry=".55" transform="translate(661.49 -63.19) rotate(150.39)"/>
            <path class="cls-9" d="M329.73,44.19h11.06v6.43c0,1.85-1.5,3.35-3.35,3.35h-4.36c-1.85,0-3.35-1.5-3.35-3.35v-6.43h0Z" transform="translate(650.99 -73.91) rotate(150.39)"/>
            <rect class="cls-4" x="380.8" y="46.51" width="1.84" height="154.46" transform="translate(774.73 42.68) rotate(150.39)"/>
            <rect class="cls-4" x="377.76" y="48.24" width="1.84" height="154.46" transform="translate(769.89 47.42) rotate(150.39)"/>
            <rect class="cls-4" x="374.71" y="49.97" width="1.84" height="154.46" transform="translate(765.05 52.15) rotate(150.38)"/>
            <path class="cls-16" d="M411.91,195.13c.8-.45.25-1.42,1.06-1.87.8-.45,1.35.51,2.15.05.8-.45.25-1.42,1.05-1.87.8-.45,1.35.51,2.15.05.8-.45.25-1.42,1.05-1.87.8-.45,1.35.51,2.15.05l3.55,12.78,2.52,9.09-6.33-6.63-9.35-9.78Z"/>
            <path class="cls-22" d="M421.27,204.91c.46-.74,1.09-1.36,1.84-1.79.6-.35,1.28-.58,1.97-.67l2.52,9.09-6.33-6.63Z"/>
          </g>
        </g>
        <g>
          <rect class="cls-5" x="214.47" y="164.63" width="193.89" height="144.31" transform="translate(-9.74 460.17) rotate(-72.07)"/>
          <g>
            <rect class="cls-16" x="235.61" y="131.43" width="144.31" height="193.89" transform="translate(85.26 -83.66) rotate(17.93)"/>
            <g>
              <g>
                <rect class="cls-9" x="266.64" y="130.82" width="37.07" height="47.92" transform="translate(61.51 -80.28) rotate(17.93)"/>
                <g class="cls-29">
                  <g>
                    <path class="cls-13" d="M286.14,135.51c-3.02.58-5.73,2.43-7.27,4.99-2.14,3.55-2.06,8.17-4.6,11.46-1.04,1.34-2.44,2.37-3.8,3.41-1.35,1.05-2.7,2.17-3.54,3.64-.85,1.47-1.12,3.35-.28,4.86.75,1.35,2.23,2.17,3.66,2.85,4.77,2.26,9.89,3.79,15.11,4.52,1.88.26,3.84.42,5.62-.18,2.37-.8,4.07-2.88,4.94-5.15.87-2.27,1.03-4.76,1.12-7.2.09-2.44.12-4.92.75-7.27.41-1.51,1-3.03,1.59-4.48.54-1.32,1.1-2.56,1.2-4.02.09-1.28-.17-2.62-.92-3.7-.7-1.01-1.8-1.73-2.99-2.12-1.01-.34-1.99-.31-3.02-.47-.68-.11-1.31-.55-1.99-.74-1.82-.53-3.72-.76-5.58-.4Z"/>
                    <g>
                      <path class="cls-4" d="M290.06,167.86c4.13,2.96,2.16,16.42,2.16,16.42,0,0-3.29,2.12-8.55.38l6.39-16.8Z"/>
                      <path class="cls-4" d="M279.08,219.86c-.16.05-.32.09-.48.14-7.87,1.97-19.44-4.23-25.04-7.65-.3-.18-.57-.35-.83-.52-1.54-.96-2.45-1.61-2.45-1.61.08-.29.18-.61.3-.95l.06-.17c.19-.55.4-1.16.64-1.83.34-.92.74-1.93,1.18-3.03.23-.57.46-1.16.72-1.77.39-.95.81-1.95,1.25-2.99.24-.57.49-1.16.74-1.75.42-.97.85-1.96,1.3-2.97.25-.58.51-1.17.78-1.75.43-.97.87-1.96,1.31-2.95.25-.58.52-1.16.78-1.74.45-.99.89-1.98,1.34-2.96.26-.58.53-1.15.79-1.73.41-.91.82-1.8,1.23-2.69.05-.09.09-.18.13-.27.11-.24.22-.48.33-.73.16-.34.31-.67.47-.99.07-.16.14-.3.21-.45.15-.35.31-.69.47-1.02v-.02c.23-.47.45-.95.66-1.41.02-.02.02-.03.02-.04.16-.34.32-.67.47-1,.11-.25.23-.49.34-.73.11-.23.21-.46.32-.68.17-.36.34-.73.5-1.09.19-.4.37-.8.56-1.18.07-.15.14-.29.2-.44.2-.44.41-.86.61-1.29.5-1.06.97-2.06,1.38-2.94.31-.62.58-1.21.82-1.73.76-1.61,1.27-2.66,1.41-2.95,0-.02,0-.03.02-.03l.02-.05h.86s.07,0,.07,0h3.07s.54,0,.54,0h.77s1.07,0,1.07,0h.45s6.08,1.96,6.08,1.96l.9.66.17.12.98.72.36.26,2.05,1.49.36.26.7.51c-.02.08-.02.16-.03.23-.16.95-.35,2.03-.58,3.23-.11.6-.23,1.23-.35,1.87-.19,1.02-.39,2.09-.62,3.22-.12.61-.25,1.23-.37,1.86-.04.15-.06.28-.08.42-.08.36-.16.72-.23,1.09-.1.49-.2.98-.31,1.49-.01.07-.02.13-.04.2-.01.04-.01.07-.02.11-.06.27-.11.53-.15.8-.08.32-.14.64-.21.96-.03.17-.08.35-.12.53-.07.37-.15.75-.23,1.12-.11.49-.22.99-.31,1.49,0,.02,0,.03,0,.05-.09.36-.16.71-.23,1.07-.05.27-.12.53-.17.79-.17.77-.33,1.56-.49,2.34-.06.28-.12.57-.18.86-.13.61-.26,1.23-.4,1.84-.23,1.07-.46,2.14-.69,3.2-.14.63-.27,1.25-.41,1.86-.23,1.08-.46,2.14-.69,3.18-.08.42-.18.85-.28,1.27-.04.2-.08.39-.12.58-.24,1.1-.48,2.15-.69,3.18-.14.64-.28,1.25-.41,1.86-.25,1.12-.49,2.18-.7,3.17-.15.65-.29,1.27-.42,1.86-.27,1.21-.51,2.28-.7,3.18-.17.74-.3,1.36-.42,1.85-.18.81-.28,1.25-.28,1.25Z"/>
                      <path class="cls-10" d="M286.93,165.59s-.02.03-.04.05c-.23.31-.66.51-1.03.39.41.96-.07,2.17-.91,2.8s-1.99.74-2.98.44c-.46-.14-.88-.35-1.23-.67-.35-.32-.59-.76-.65-1.22-.32.34-.78.54-1.24.6-.47.06-.95-.02-1.39-.18-.99-.34-1.86-1.11-2.16-2.1-.31-1,0-2.26.91-2.8-.37-.12-.6-.53-.6-.92,0-.03,0-.07.01-.1h.54s.77,0,.77,0h1.07s.45-.01.45-.01l6.08,1.97.9.66.17.12.98.72.36.26Z"/>
                      <path class="cls-4" d="M271.62,161.89c-3.65,0-16.67,11.04-16.67,11.04,0,0,3.09,7.02,6.67,10.98l4.43-4.88,5.57-17.15Z"/>
                    </g>
                    <g>
                      <path class="cls-14" d="M295.13,155c-1.13,2.34-2.54,3.54-4.14,4.19-.98.4-1.82.62-2.55.84-1.84.55-3.02,1.1-4.14,4.56-1.85,2.24-5.9,1.31-6.22-2.01,1.53-4.55,1.65-8.69,1.6-10.68-.02-.61-.05-1.02-.07-1.18,0-.06,0-.08,0-.08,0,0,.25-.73.66-1.8.05-.13.1-.27.15-.4.96-2.49,2.57-6.37,3.79-7.52,4.47-4.23,13.77.71,13.22,5.05-.53,4.13-1.31,7.01-2.3,9.03Z"/>
                      <path class="cls-13" d="M297.3,148.46c-1.72-1.54-2.87-3.69-3.21-5.98-.24.59-.81.98-1.35,1.31-1.88,1.12-4.09,1.68-6.27,1.57-.71,1.15-1.76,2.03-2.97,2.62-1.22.59-2.6.83-3.95.68.46-2.38.55-4.84,1.71-6.97,1.16-2.13,3.05-3.98,5.41-4.53,1.36-.32,2.8-.19,4.16.14,2.48.59,4.87,1.9,6.3,4.01s1.61,5.05.17,7.15Z"/>
                      <g>
                        <path class="cls-13" d="M292.95,149.77c.97-.3,2,.07,2.54.96.1.17.05.42-.11.54-.16.13-.38.09-.48-.08-.22-.37-.57-.61-.97-.71-.2-.05-.41-.06-.61-.03-.18.03-.38.11-.52-.04-.03-.04-.06-.09-.07-.14-.05-.18.04-.45.23-.5Z"/>
                        <path class="cls-13" d="M290.48,148.97c-.73-.85-1.93-1.2-3-.83-.2.07-.31.3-.24.5.07.2.3.31.5.24.44-.15.93-.12,1.35.05.22.09.42.21.6.36.16.13.29.33.52.29.06,0,.11-.03.16-.06.16-.11.24-.38.1-.55Z"/>
                        <path class="cls-15" d="M289.83,155.48c.35.11.73.15,1.13.08.19-.03.32-.21.28-.4-.03-.19-.21-.32-.4-.28-.98.17-1.77-.59-1.92-1.04-.06-.18-.26-.28-.44-.22s-.28.26-.22.44c.17.53.76,1.17,1.56,1.42Z"/>
                        <path class="cls-15" d="M291.23,153.85s.08,0,.1-.03c.33-.49.21-.73.04-.85-.17-.12-.4-.14-.7-.07-.05.01-.07.06-.06.11.01.05.06.07.11.06.25-.06.44-.05.56.04.15.1.12.31-.09.61-.03.04-.02.09.02.12,0,0,.01,0,.02.01Z"/>
                        <g>
                          <path class="cls-7" d="M287.9,150.6c-.11.33.07.69.41.8.33.11.69-.07.8-.41s-.07-.69-.41-.8c-.33-.11-.69.08-.8.41Z"/>
                          <path class="cls-10" d="M288.56,150.63c-.04.12.03.25.15.29s.25-.03.29-.15c.04-.12-.03-.25-.15-.29-.12-.04-.25.03-.29.15Z"/>
                        </g>
                        <g>
                          <path class="cls-7" d="M292.57,152.11c-.11.33.07.69.41.8.33.11.69-.07.8-.41s-.07-.69-.41-.8c-.33-.11-.69.07-.8.41Z"/>
                          <path class="cls-10" d="M293.23,152.14c-.04.12.03.25.15.29.12.04.25-.03.29-.15s-.03-.25-.15-.29c-.12-.04-.25.03-.29.15Z"/>
                        </g>
                      </g>
                      <g>
                        <path class="cls-14" d="M277.38,150.12c.52,1.28,1.77,1.99,2.79,1.58,1.02-.41,1.42-1.79.9-3.07-.52-1.28-1.77-1.99-2.79-1.58s-1.42,1.79-.9,3.07Z"/>
                        <path class="cls-15" d="M278.67,147.72c.42-.07.9.09,1.27.44.19.17.31.35.37.54.08.25.04.52-.11.7-.13.16-.32.24-.49.3-.12.05-.23.09-.31.16-.12.11-.16.3-.1.45.07.15.24.25.4.23.1-.01.18.06.19.15.01.1-.06.18-.15.19-.1.01-.21,0-.31-.03-.2-.06-.37-.21-.45-.4-.13-.29-.05-.65.18-.85.13-.11.28-.17.42-.23.14-.05.27-.1.34-.2.07-.09.09-.24.05-.38-.02-.06-.05-.11-.08-.17-.16-.05-.39-.07-.53,0-.16.09-.27.26-.3.44-.01.09-.1.16-.2.15,0,0-.02,0-.03,0-.08-.03-.13-.11-.12-.19.04-.29.22-.54.47-.69.09-.05.2-.08.3-.09-.25-.16-.52-.23-.77-.19-.3.05-.61.34-.57.67.01.1-.06.18-.15.19-.1.01-.18-.06-.19-.15-.06-.48.33-.97.86-1.06Z"/>
                      </g>
                    </g>
                  </g>
                </g>
              </g>
              <g>
                <rect class="cls-23" x="342.76" y="128.31" width="3.72" height="61.14" transform="translate(87.35 437.84) rotate(-72.07)"/>
                <rect class="cls-23" x="344.97" y="137.46" width="3.72" height="75.37" transform="translate(73.41 451.2) rotate(-72.07)"/>
                <rect class="cls-23" x="329.13" y="143.89" width="3.72" height="37.52" transform="translate(74.33 427.48) rotate(-72.07)"/>
                <rect class="cls-23" x="369.15" y="156.84" width="3.72" height="37.52" transform="translate(89.71 474.52) rotate(-72.07)"/>
                <rect class="cls-23" x="316.87" y="163" width="3.72" height="20.84" transform="translate(55.61 423.27) rotate(-72.07)"/>
                <rect class="cls-23" x="370.62" y="187.75" width="3.72" height="20.84" transform="translate(69.25 491.54) rotate(-72.07)"/>
                <rect class="cls-23" x="329.7" y="158.77" width="3.72" height="52.33" transform="translate(53.53 443.44) rotate(-72.07)"/>
                <rect class="cls-23" x="356.75" y="159.05" width="3.72" height="54.53" transform="translate(70.93 470.14) rotate(-72.07)"/>
              </g>
            </g>
            <g>
              <g>
                <path class="cls-6" d="M262.9,197.43c-3.5-1.13-5.43-4.91-4.3-8.41,1.13-3.5,4.91-5.43,8.41-4.3s5.43,4.91,4.3,8.41c-1.13,3.51-4.91,5.43-8.41,4.3ZM266.54,186.19c-2.7-.87-5.6.61-6.47,3.31-.87,2.7.61,5.6,3.31,6.47,2.7.87,5.6-.61,6.47-3.31.87-2.7-.61-5.6-3.31-6.47Z"/>
                <path class="cls-6" d="M264.22,193.33c-.19-.06-.36-.2-.45-.39l-1.9-3.8c-.19-.38-.04-.84.34-1.04.38-.19.84-.04,1.04.34l1.58,3.16,8.75-3.64c.39-.16.84.02,1.01.42.16.39-.02.84-.42,1.01l-9.42,3.91c-.18.07-.36.08-.53.02Z"/>
              </g>
              <g>
                <rect class="cls-12" x="325.07" y="158.28" width="2" height="96.44" transform="translate(29.2 453.15) rotate(-72.07)"/>
                <rect class="cls-12" x="338.49" y="182.42" width="2" height="65.55" transform="translate(30.23 471.94) rotate(-72.07)"/>
                <rect class="cls-12" x="304.95" y="178.94" width="2" height="59.5" transform="translate(13.2 435.52) rotate(-72.07)"/>
                <rect class="cls-12" x="278.26" y="198.8" width="27.31" height="2" transform="translate(75.69 -80.17) rotate(17.93)"/>
                <rect class="cls-12" x="336.21" y="222.98" width="34.01" height="2" transform="translate(86.12 -97.87) rotate(17.93)"/>
              </g>
            </g>
            <g>
              <g>
                <path class="cls-6" d="M255.65,219.82c-3.5-1.13-5.43-4.91-4.3-8.41,1.13-3.5,4.91-5.43,8.41-4.3,3.5,1.13,5.43,4.91,4.3,8.41-1.13,3.51-4.91,5.43-8.41,4.3ZM259.29,208.57c-2.7-.87-5.6.61-6.47,3.31-.87,2.7.61,5.6,3.31,6.47,2.7.87,5.6-.61,6.47-3.31.87-2.7-.61-5.6-3.31-6.47Z"/>
                <path class="cls-6" d="M256.98,215.72c-.19-.06-.36-.2-.45-.39l-1.9-3.8c-.19-.38-.04-.84.34-1.04.38-.19.84-.04,1.04.34l1.58,3.16,8.75-3.64c.39-.16.84.02,1.01.42.16.39-.02.84-.42,1.01l-9.42,3.91c-.18.07-.36.08-.53.02Z"/>
              </g>
              <g>
                <rect class="cls-12" x="317.82" y="180.67" width="2" height="96.44" transform="translate(2.89 461.75) rotate(-72.07)"/>
                <rect class="cls-12" x="331.24" y="204.81" width="2" height="65.55" transform="translate(3.91 480.53) rotate(-72.07)"/>
                <rect class="cls-12" x="297.7" y="201.33" width="2" height="59.5" transform="translate(-13.1 444.14) rotate(-72.07)"/>
                <rect class="cls-12" x="271.01" y="221.18" width="27.31" height="2" transform="translate(82.23 -76.85) rotate(17.93)"/>
                <rect class="cls-12" x="328.97" y="245.37" width="34.01" height="2" transform="translate(92.66 -94.55) rotate(17.93)"/>
              </g>
            </g>
            <g>
              <g>
                <path class="cls-6" d="M248.41,242.21c-3.5-1.13-5.43-4.91-4.3-8.41,1.13-3.5,4.91-5.43,8.41-4.3,3.5,1.13,5.43,4.91,4.3,8.41-1.13,3.51-4.91,5.43-8.41,4.3ZM252.05,230.96c-2.7-.87-5.6.61-6.47,3.31-.87,2.7.61,5.6,3.31,6.47,2.7.87,5.6-.61,6.47-3.31.87-2.7-.61-5.6-3.31-6.47Z"/>
                <path class="cls-6" d="M249.73,238.11c-.19-.06-.36-.2-.45-.39l-1.9-3.8c-.19-.38-.04-.84.34-1.04.38-.19.84-.04,1.04.34l1.58,3.16,8.75-3.64c.39-.16.84.02,1.01.42.16.39-.02.84-.42,1.01l-9.42,3.91c-.18.07-.36.08-.53.02Z"/>
              </g>
              <g>
                <rect class="cls-12" x="310.58" y="203.06" width="2" height="96.44" transform="translate(-23.43 470.36) rotate(-72.07)"/>
                <rect class="cls-12" x="324" y="227.2" width="2" height="65.55" transform="translate(-22.41 489.14) rotate(-72.07)"/>
                <rect class="cls-12" x="290.46" y="223.71" width="2" height="59.5" transform="translate(-39.43 452.73) rotate(-72.07)"/>
                <rect class="cls-12" x="263.77" y="243.57" width="27.31" height="2" transform="translate(88.77 -73.53) rotate(17.93)"/>
                <rect class="cls-12" x="321.72" y="267.76" width="34.01" height="2" transform="translate(99.2 -91.23) rotate(17.93)"/>
              </g>
            </g>
            <g>
              <rect class="cls-21" x="264.9" y="273" width="87.69" height="2.48" transform="translate(99.43 -81.74) rotate(17.93)"/>
              <rect class="cls-21" x="233.66" y="274.13" width="117.8" height="2.48" transform="translate(98.99 -76.7) rotate(17.93)"/>
              <rect class="cls-21" x="232.97" y="272.47" width="69.58" height="2.48" transform="translate(97.27 -69.14) rotate(17.93)"/>
              <rect class="cls-21" x="229.93" y="285.66" width="117.8" height="2.48" transform="translate(102.36 -74.99) rotate(17.93)"/>
              <rect class="cls-21" x="291.66" y="301.45" width="52.62" height="2.48" transform="translate(108.64 -83.19) rotate(17.93)"/>
              <rect class="cls-21" x="226.2" y="297.19" width="117.8" height="2.48" transform="translate(105.73 -73.28) rotate(17.93)"/>
              <rect class="cls-21" x="225.12" y="298" width="85.65" height="2.48" transform="translate(105.14 -67.96) rotate(17.93)"/>
              <rect class="cls-21" x="313.01" y="316.94" width="26.92" height="2.48" transform="translate(113.82 -85.06) rotate(17.93)"/>
              <rect class="cls-21" x="229.56" y="281.96" width="56.36" height="2.48" transform="translate(99.71 -65.6) rotate(17.93)"/>
              <rect class="cls-21" x="304.8" y="291.41" width="42.98" height="2.48" transform="translate(105.95 -86.24) rotate(17.93)"/>
            </g>
          </g>
        </g>
        <g>
          <polygon class="cls-2" points="178.6 357.76 54.59 326.2 36.6 396.9 160.61 428.45 174.58 373.58 174.58 373.58 178.6 357.76"/>
          <g>
            <rect class="cls-12" x="79.41" y="308.43" width="72.95" height="127.96" transform="translate(-273.61 392.87) rotate(-75.72)"/>
            <polygon class="cls-4" points="44.88 391.98 117.19 367.28 168.89 423.54 44.88 391.98"/>
            <polygon class="cls-25" points="58.85 337.11 113.02 383.66 182.85 368.67 58.85 337.11"/>
            <polygon class="cls-23" points="186.88 352.84 182.85 368.67 113.96 379.97 58.85 337.11 62.87 321.29 186.88 352.84"/>
          </g>
        </g>
        <g>
          <rect class="cls-5" x="119.15" y="233.95" width="145.76" height="195.83" transform="translate(-121.48 111.14) rotate(-24.8)"/>
          <g>
            <rect class="cls-16" x="115.19" y="241.15" width="145.76" height="195.83" transform="translate(-124.87 110.14) rotate(-24.8)"/>
            <g>
              <g>
                <path class="cls-6" d="M133.57,346.85c-3.38,1.56-7.4.08-8.96-3.3-1.56-3.38-.08-7.39,3.3-8.96,3.38-1.56,7.39-.08,8.96,3.3,1.56,3.38.08,7.4-3.29,8.96ZM128.56,336.02c-2.6,1.2-3.73,4.29-2.53,6.89,1.2,2.6,4.29,3.73,6.89,2.53,2.6-1.2,3.73-4.29,2.53-6.89-1.2-2.6-4.29-3.73-6.89-2.53Z"/>
                <path class="cls-6" d="M131.74,342.9c-.18.08-.4.1-.6.02l-4.01-1.51c-.4-.15-.61-.6-.45-1,.15-.4.6-.61,1-.45l3.34,1.26,4-8.7c.18-.39.64-.56,1.03-.38.39.18.56.64.38,1.03l-4.31,9.36c-.08.17-.22.31-.38.38Z"/>
              </g>
              <g>
                <rect class="cls-12" x="137.95" y="309.28" width="97.4" height="2.02" transform="translate(-112.93 106.9) rotate(-24.8)"/>
                <rect class="cls-12" x="169.47" y="306.53" width="66.2" height="2.02" transform="translate(-110.31 113.32) rotate(-24.8)"/>
                <rect class="cls-12" x="143.18" y="324.69" width="60.09" height="2.02" transform="translate(-120.63 102.69) rotate(-24.8)"/>
                <rect class="cls-12" x="142.92" y="327.71" width="27.58" height="2.02" transform="translate(-123.42 96.04) rotate(-24.8)"/>
                <rect class="cls-12" x="201.6" y="303.64" width="34.35" height="2.02" transform="translate(-107.6 119.85) rotate(-24.8)"/>
              </g>
            </g>
            <g>
              <g>
                <path class="cls-6" d="M143.54,368.43c-3.38,1.56-7.39.08-8.96-3.3-1.56-3.38-.08-7.39,3.3-8.96,3.38-1.56,7.39-.08,8.96,3.3,1.56,3.38.08,7.4-3.29,8.96ZM138.53,357.59c-2.6,1.2-3.73,4.29-2.53,6.89,1.2,2.6,4.29,3.73,6.89,2.53,2.6-1.2,3.73-4.29,2.53-6.89-1.2-2.6-4.29-3.73-6.89-2.53Z"/>
                <path class="cls-6" d="M141.71,364.48c-.18.08-.4.1-.6.02l-4.01-1.51c-.4-.15-.61-.6-.45-1,.15-.4.6-.61,1-.45l3.34,1.26,4-8.7c.18-.39.64-.56,1.03-.38.39.18.56.64.38,1.03l-4.31,9.36c-.08.17-.22.31-.38.38Z"/>
              </g>
              <g>
                <rect class="cls-12" x="147.92" y="330.85" width="97.4" height="2.02" transform="translate(-121.06 113.07) rotate(-24.8)"/>
                <rect class="cls-12" x="179.43" y="328.1" width="66.2" height="2.02" transform="translate(-118.44 119.49) rotate(-24.8)"/>
                <rect class="cls-12" x="153.14" y="346.26" width="60.1" height="2.02" transform="translate(-128.76 108.86) rotate(-24.8)"/>
                <rect class="cls-12" x="152.89" y="349.29" width="27.58" height="2.02" transform="translate(-131.55 102.21) rotate(-24.8)"/>
                <rect class="cls-12" x="211.57" y="325.22" width="34.35" height="2.02" transform="translate(-115.73 126.02) rotate(-24.8)"/>
              </g>
            </g>
            <g>
              <g>
                <path class="cls-6" d="M153.5,390c-3.38,1.56-7.4.08-8.96-3.3-1.56-3.38-.08-7.39,3.3-8.96s7.39-.08,8.96,3.3c1.56,3.38.08,7.4-3.29,8.96ZM148.5,379.17c-2.6,1.2-3.73,4.29-2.53,6.89,1.2,2.6,4.29,3.73,6.89,2.53,2.6-1.2,3.73-4.29,2.53-6.89-1.2-2.6-4.29-3.73-6.89-2.53Z"/>
                <path class="cls-6" d="M151.68,386.05c-.18.08-.4.1-.6.02l-4.01-1.51c-.4-.15-.61-.6-.45-1,.15-.4.6-.61,1-.45l3.34,1.26,4-8.7c.18-.39.64-.56,1.03-.38.39.18.56.64.38,1.03l-4.31,9.36c-.08.17-.22.31-.38.38Z"/>
              </g>
              <g>
                <rect class="cls-12" x="157.89" y="352.43" width="97.4" height="2.02" transform="translate(-129.19 119.24) rotate(-24.8)"/>
                <rect class="cls-12" x="189.4" y="349.68" width="66.2" height="2.02" transform="translate(-126.57 125.66) rotate(-24.8)"/>
                <rect class="cls-12" x="163.11" y="367.84" width="60.09" height="2.02" transform="translate(-136.89 115.02) rotate(-24.8)"/>
                <rect class="cls-12" x="162.86" y="370.86" width="27.58" height="2.02" transform="translate(-139.68 108.38) rotate(-24.8)"/>
                <rect class="cls-12" x="221.54" y="346.79" width="34.35" height="2.02" transform="translate(-123.86 132.19) rotate(-24.8)"/>
              </g>
            </g>
            <g>
              <rect class="cls-21" x="175.94" y="371.16" width="88.57" height="2.5" transform="translate(-135.89 126.7) rotate(-24.8)"/>
              <rect class="cls-21" x="149.5" y="383.09" width="118.98" height="2.5" transform="translate(-141.93 123.09) rotate(-24.8)"/>
              <rect class="cls-21" x="154.31" y="398.86" width="70.27" height="2.5" transform="translate(-150.35 116.35) rotate(-24.8)"/>
              <rect class="cls-21" x="154.63" y="394.2" width="118.98" height="2.5" transform="translate(-146.12 126.27) rotate(-24.8)"/>
              <rect class="cls-21" x="219.99" y="385.95" width="53.15" height="2.5" transform="translate(-139.67 139.12) rotate(-24.8)"/>
              <rect class="cls-21" x="159.77" y="405.32" width="118.98" height="2.5" transform="translate(-150.3 129.45) rotate(-24.8)"/>
              <rect class="cls-21" x="163.83" y="417.68" width="86.51" height="2.5" transform="translate(-156.61 125.48) rotate(-24.8)"/>
              <rect class="cls-21" x="249.89" y="391.62" width="27.19" height="2.5" transform="translate(-140.48 146.74) rotate(-24.8)"/>
              <rect class="cls-21" x="160.06" y="412.77" width="56.93" height="2.5" transform="translate(-156.27 117.25) rotate(-24.8)"/>
              <rect class="cls-21" x="224.15" y="372.8" width="43.41" height="2.5" transform="translate(-134.22 137.61) rotate(-24.8)"/>
            </g>
            <g>
              <g>
                <rect class="cls-23" x="136.9" y="260.37" width="61.75" height="3.76" transform="translate(-94.52 94.55) rotate(-24.8)"/>
                <rect class="cls-23" x="142.5" y="270.92" width="76.12" height="3.76" transform="translate(-97.77 100.89) rotate(-24.8)"/>
                <rect class="cls-23" x="141.3" y="272.51" width="37.9" height="3.76" transform="translate(-100.31 92.51) rotate(-24.8)"/>
                <rect class="cls-23" x="179.87" y="254.69" width="37.9" height="3.76" transform="translate(-89.27 107.04) rotate(-24.8)"/>
                <rect class="cls-23" x="148.01" y="288.89" width="21.05" height="3.76" transform="translate(-107.34 93.3) rotate(-24.8)"/>
                <rect class="cls-23" x="204.85" y="270.43" width="21.05" height="3.76" transform="translate(-94.35 115.44) rotate(-24.8)"/>
                <rect class="cls-23" x="149.51" y="288.65" width="52.85" height="3.76" transform="translate(-105.63 100.58) rotate(-24.8)"/>
                <rect class="cls-23" x="169.42" y="271.14" width="55.08" height="3.76" transform="translate(-96.35 107.78) rotate(-24.8)"/>
              </g>
              <g>
                <rect class="cls-9" x="102.15" y="275.74" width="37.44" height="48.4" transform="translate(-114.66 78.35) rotate(-24.8)"/>
                <g class="cls-28">
                  <g>
                    <g>
                      <path class="cls-21" d="M134.33,305.89c5.09-.63,12.86,10.7,12.86,10.7,0,0-.99,3.83-6.08,6.14l-6.77-16.84Z"/>
                      <path class="cls-21" d="M133.84,364.58s1.12-.14,2.92-.48c.3-.06.62-.12.96-.18,6.51-1.29,19.34-4.63,23.83-11.49.1-.14.18-.28.27-.43,0,0-.23-.4-.65-1.12-.25-.44-.57-1-.96-1.66-.47-.8-1.02-1.76-1.65-2.84-.31-.52-.63-1.08-.97-1.67-.52-.88-1.07-1.84-1.65-2.83-.31-.54-.64-1.09-.96-1.66-.54-.91-1.09-1.86-1.67-2.83-.1-.17-.2-.34-.3-.52-.22-.38-.44-.76-.67-1.14-.54-.93-1.1-1.88-1.66-2.83-.32-.55-.65-1.1-.97-1.66-.55-.94-1.11-1.89-1.67-2.84-.32-.55-.65-1.1-.97-1.65-.15-.26-.3-.51-.45-.76-.41-.69-.82-1.39-1.23-2.08-.14-.24-.28-.47-.42-.7-.18-.32-.37-.63-.56-.95,0-.02-.02-.03-.03-.05-.27-.44-.54-.89-.79-1.32-.2-.33-.4-.67-.6-.99-.09-.16-.19-.32-.28-.47-.17-.28-.34-.56-.5-.85-.14-.23-.29-.46-.43-.7-.02-.03-.04-.06-.06-.09-.03-.06-.07-.12-.1-.18-.27-.44-.53-.88-.8-1.31-.2-.32-.38-.65-.58-.96-.07-.13-.15-.25-.23-.37-.34-.56-.67-1.1-1-1.63-.6-.99-1.19-1.93-1.74-2.81-.35-.57-.69-1.11-1.02-1.63-.65-1.04-1.25-1.98-1.79-2.79-.04-.07-.09-.13-.13-.2l-.87.1-.46.05-2.98.35-1.23.14-.21.03-1.12.13-5.86,2.71-.33.31-.79.73-.57.53-2.67,2.48-.04.05-.64.59.02.05s0,.02,0,.04c.1.31.44,1.43.98,3.15.17.55.37,1.17.57,1.84.3.94.63,2,.99,3.13.14.45.29.91.43,1.37.05.15.1.3.14.46.13.41.27.83.4,1.26.13.38.25.76.37,1.15.07.24.15.48.23.73.08.26.16.52.25.77.11.35.22.7.33,1.06,0,.02.01.03.02.05.16.49.32,1,.48,1.5h0c.11.38.23.73.35,1.09.05.16.1.32.15.47.11.35.23.7.34,1.06.09.25.17.51.25.77.03.09.06.19.09.29.3.93.61,1.88.93,2.83.2.6.4,1.21.6,1.82.34,1.03.69,2.08,1.03,3.11.2.61.41,1.22.61,1.83.35,1.04.7,2.07,1.05,3.09.21.62.42,1.23.63,1.83.36,1.05.72,2.08,1.07,3.08.22.62.43,1.23.65,1.82.38,1.07.76,2.1,1.12,3.07.23.63.46,1.23.68,1.81.42,1.11.83,2.13,1.2,3.05.27.66.53,1.26.77,1.79.03.06.05.11.08.17.15.34.29.64.43.91Z"/>
                      <path class="cls-21" d="M116.56,314.1c-2.7,2.51-4.8,19.62-4.8,19.62,0,0,7.1,3.09,12.48,3.58l-.06-6.65-7.62-16.54Z"/>
                    </g>
                    <g>
                      <path class="cls-7" d="M107.47,294c-.42-.75-.79-1.56-.86-2.41-.08-.86.18-1.77.82-2.31-.44-.14-.76-.61-.73-1.07.03-.46.39-.88.85-.95,1.89-4.55,6.25-7.91,11.09-8.55.65-.09,1.33-.12,1.97.07.64.19,1.23.66,1.43,1.3,1.26-.82,3.11-.58,4.16.55s1.19,3.01.31,4.25c.62.36.96,1.11,1.01,1.83.05.72-.15,1.43-.38,2.11-1.21,3.59-3.32,6.84-6.05,9.41-.69.65-1.42,1.26-2.18,1.82-.38.27-.76.54-1.15.79-.29.18-.78.63-1.12.66-.37.03-.99-.34-1.33-.48-.43-.18-.85-.38-1.27-.6-.84-.45-1.64-.97-2.39-1.56-1.68-1.32-3.11-2.97-4.16-4.84Z"/>
                      <path class="cls-14" d="M129.28,292.88c.76,2.51.54,4.37-.2,5.95-.45.97-.92,1.71-1.32,2.37-.99,1.68-1.49,2.88.05,6.21.16,2.93-3.47,5.02-5.99,2.77-1.98-4.43-4.73-7.58-6.13-9.02-.43-.44-.74-.72-.86-.83-.04-.04-.06-.05-.06-.05,0,0-.31-.72-.74-1.78-.05-.13-.11-.27-.16-.4-1-2.51-2.45-6.49-2.34-8.18.42-6.2,10.71-8.91,13.27-5.31,2.44,3.43,3.83,6.1,4.48,8.28Z"/>
                      <path class="cls-7" d="M125.03,283.78c-.25.66-.8,1.15-1.35,1.58-2.6,2.02-5.82,3.24-9.11,3.45.33.2.49.63.4,1s-.45.66-.84.67c.75.95,1.23,2.3,1.23,3.5,0,1.2-.43,2.4-1.18,3.34-.24.29-.53.58-.91.62-.61.07-1.08-.5-1.42-1.01-1.24-1.85-2.52-3.84-2.58-6.06-.06-2.19,1.11-4.3,2.78-5.72s3.78-2.24,5.91-2.73c1.25-.29,2.54-.47,3.81-.32,1.27.15,2.39.73,3.26,1.66Z"/>
                      <g>
                        <path class="cls-7" d="M124.07,290.49c.52-.89,1.53-1.32,2.54-1.03.19.05.32.28.29.48-.03.2-.22.32-.41.27-.41-.12-.85-.06-1.2.14-.18.1-.34.23-.47.4-.12.15-.2.34-.42.33-.05,0-.1-.02-.15-.05-.16-.1-.27-.36-.18-.53Z"/>
                        <path class="cls-7" d="M121.7,291.59c-1.12-.13-2.25.43-2.79,1.44-.1.19-.02.44.17.53.19.1.43.02.53-.17.22-.41.6-.72,1.04-.89.22-.08.45-.13.69-.14.21,0,.44.04.59-.14.04-.04.06-.1.07-.15.04-.19-.09-.45-.3-.47Z"/>
                        <path class="cls-15" d="M125.68,296.86c.33-.15.65-.39.9-.72.12-.15.09-.37-.06-.49-.15-.12-.37-.09-.49.06-.61.8-1.71.78-2.13.54-.17-.09-.38-.03-.48.14-.09.17-.03.38.14.48.49.27,1.37.34,2.13-.01Z"/>
                        <path class="cls-15" d="M125.59,294.7s.06-.05.05-.09c-.09-.59-.35-.68-.55-.66-.2.03-.4.17-.57.43-.03.04-.02.09.02.12.04.03.1.01.12-.02.14-.22.29-.33.44-.35.18-.02.3.15.35.51,0,.05.05.08.1.07,0,0,.02,0,.02,0Z"/>
                        <g>
                          <path class="cls-7" d="M120.9,294.57c.15.32.53.46.85.31.32-.15.46-.53.31-.85-.15-.32-.53-.46-.85-.31-.32.15-.46.53-.31.85Z"/>
                          <path class="cls-10" d="M121.41,294.14c.05.12.19.17.31.11.12-.05.17-.19.11-.31-.05-.12-.19-.17-.31-.11-.12.05-.17.19-.11.31Z"/>
                        </g>
                        <g>
                          <path class="cls-7" d="M125.4,292.49c.15.32.53.46.85.31.32-.15.46-.53.31-.85-.15-.32-.53-.46-.85-.31-.32.15-.46.53-.31.85Z"/>
                          <path class="cls-10" d="M125.91,292.06c.05.12.19.17.31.11.12-.05.17-.19.11-.31s-.19-.17-.31-.11c-.12.05-.17.19-.11.31Z"/>
                        </g>
                      </g>
                      <g>
                        <path class="cls-14" d="M112.76,301.42c1.26.6,2.67.26,3.15-.74s-.17-2.3-1.43-2.9-2.67-.26-3.15.74c-.47,1,.17,2.3,1.43,2.9Z"/>
                        <path class="cls-15" d="M112.08,298.75c.26-.34.73-.55,1.25-.55.26,0,.47.05.64.15.23.13.38.36.4.6.01.21-.08.4-.15.56-.06.12-.11.23-.12.33-.02.16.09.34.24.4.15.06.35.02.45-.11.06-.07.17-.08.25-.02.07.06.08.17.02.25-.07.08-.15.14-.25.19-.19.09-.41.1-.61.02-.29-.12-.48-.44-.45-.76.02-.17.09-.32.16-.46.07-.13.13-.26.12-.38,0-.12-.1-.24-.22-.32-.05-.03-.11-.05-.18-.07-.16.07-.33.21-.38.37-.06.18-.03.38.08.53.05.08.03.19-.05.24,0,0-.02.01-.03.01-.08.04-.17.01-.22-.06-.16-.24-.21-.55-.12-.83.03-.1.09-.19.16-.27-.3.05-.55.18-.7.38-.19.25-.22.67.04.89.07.06.08.17.02.25-.06.07-.17.08-.25.02-.37-.32-.41-.95-.09-1.37Z"/>
                      </g>
                    </g>
                    <polygon class="cls-1" points="120.92 310.03 120.75 308.03 125.85 310.73 124.58 314.41 120.92 310.03"/>
                    <polygon class="cls-1" points="128.51 306.52 127.1 305.09 125.85 310.73 129.48 312.14 128.51 306.52"/>
                  </g>
                </g>
              </g>
            </g>
          </g>
        </g>
        <g>
          <rect class="cls-19" x="211.56" y="158.09" width="9.65" height="44.95" transform="translate(309.35 -85.49) rotate(69.42)"/>
          <path class="cls-11" d="M335.91,135.68c-10.86-28.92-43.22-43.6-72.13-32.74-28.92,10.86-43.6,43.21-32.74,72.12,10.86,28.92,43.21,43.6,72.12,32.74,28.92-10.86,43.61-43.21,32.75-72.13ZM239.88,171.75c-9.03-24.04,3.18-50.92,27.21-59.95s50.93,3.17,59.96,27.21c9.03,24.04-3.19,50.93-27.23,59.96s-50.92-3.18-59.95-27.21Z"/>
          <path class="cls-2" d="M331.83,137.21c-10.01-26.66-39.85-40.21-66.52-30.2-26.66,10.01-40.2,39.86-30.19,66.52,10.02,26.67,39.85,40.21,66.51,30.2,26.67-10.02,40.21-39.85,30.2-66.52ZM239.88,171.75c-9.03-24.04,3.18-50.92,27.21-59.95s50.93,3.17,59.96,27.21c9.03,24.04-3.19,50.93-27.23,59.96s-50.92-3.18-59.95-27.21Z"/>
          <circle class="cls-24" cx="283.47" cy="155.38" r="46.56" transform="translate(-26.84 245.95) rotate(-45)"/>
          <path class="cls-9" d="M131.81,212.34h0c-1.82-4.84.63-10.23,5.47-12.04l67.22-25.24,6.58,17.51-67.22,25.24c-4.84,1.82-10.23-.63-12.04-5.47Z"/>
          <path class="cls-6" d="M209.33,187.95l-67.22,25.24c-4.04,1.52-8.45.05-10.86-3.28.08.81.25,1.63.55,2.43,1.82,4.84,7.21,7.28,12.04,5.47l67.22-25.24-1.73-4.61Z"/>
          <path class="cls-3" d="M298.59,116.05c-14.2-4.44-28.99-2.19-40.26,7.93-6.71,6.03,1.53,17.58,8.34,11.47,7.23-6.49,16.51-9.49,26.07-6.5,8.61,2.69,14.56-10.19,5.86-12.91Z"/>
        </g>
        <g>
          <g>
            <path class="cls-10" d="M301.52,163.24s.33,0,.87,0c-.54,0-.87,0-.87,0Z"/>
            <path class="cls-10" d="M312.56,174.28s0-.33,0-.87c0,.54,0,.87,0,.87Z"/>
            <path class="cls-10" d="M312.56,153.07c-.02,2.08-.21,7.26-1.56,8.61-1.35,1.35-6.53,1.54-8.61,1.56,2.08.02,7.26.21,8.61,1.56s1.54,6.53,1.56,8.61c.02-2.08.21-7.26,1.56-8.61,1.35-1.35,6.53-1.54,8.61-1.56-2.08-.02-7.26-.21-8.61-1.56-1.35-1.35-1.54-6.53-1.56-8.61Z"/>
            <path class="cls-10" d="M312.56,152.2s0,.33,0,.87c0-.54,0-.87,0-.87Z"/>
            <path class="cls-10" d="M323.6,163.24s-.33,0-.87,0c.54,0,.87,0,.87,0Z"/>
          </g>
          <g>
            <path class="cls-10" d="M67.13,384.05s.33,0,.87,0c-.54,0-.87,0-.87,0Z"/>
            <path class="cls-10" d="M78.17,395.09s0-.33,0-.87c0,.54,0,.87,0,.87Z"/>
            <path class="cls-10" d="M78.17,373.88c-.02,2.08-.21,7.26-1.56,8.61-1.35,1.35-6.53,1.54-8.61,1.56,2.08.02,7.26.21,8.61,1.56,1.35,1.35,1.54,6.53,1.56,8.61.02-2.08.21-7.26,1.56-8.61s6.53-1.54,8.61-1.56c-2.08-.02-7.26-.21-8.61-1.56-1.35-1.35-1.54-6.53-1.56-8.61Z"/>
            <path class="cls-10" d="M78.17,373s0,.33,0,.87c0-.54,0-.87,0-.87Z"/>
            <path class="cls-10" d="M89.22,384.05s-.33,0-.87,0c.54,0,.87,0,.87,0Z"/>
          </g>
          <g>
            <path class="cls-10" d="M109.81,159.34s.33,0,.87,0c-.54,0-.87,0-.87,0Z"/>
            <path class="cls-10" d="M120.85,170.38s0-.33,0-.87c0,.54,0,.87,0,.87Z"/>
            <path class="cls-10" d="M120.85,149.17c-.02,2.08-.21,7.26-1.56,8.61-1.35,1.35-6.53,1.54-8.61,1.56,2.08.02,7.26.21,8.61,1.56,1.35,1.35,1.54,6.53,1.56,8.61.02-2.08.21-7.26,1.56-8.61,1.35-1.35,6.53-1.54,8.61-1.56-2.08-.02-7.26-.21-8.61-1.56-1.35-1.35-1.54-6.53-1.56-8.61Z"/>
            <path class="cls-10" d="M120.85,148.29s0,.33,0,.87c0-.54,0-.87,0-.87Z"/>
            <path class="cls-10" d="M131.89,159.34s-.33,0-.87,0c.54,0,.87,0,.87,0Z"/>
          </g>
          <g>
            <path class="cls-10" d="M225.85,94.57s.33,0,.87,0c-.54,0-.87,0-.87,0Z"/>
            <path class="cls-10" d="M236.89,105.62s0-.33,0-.87c0,.54,0,.87,0,.87Z"/>
            <path class="cls-10" d="M236.89,84.4c-.02,2.08-.21,7.26-1.56,8.61-1.35,1.35-6.53,1.54-8.61,1.56,2.08.02,7.26.21,8.61,1.56,1.35,1.35,1.54,6.53,1.56,8.61.02-2.08.21-7.26,1.56-8.61,1.35-1.35,6.53-1.54,8.61-1.56-2.08-.02-7.26-.21-8.61-1.56s-1.54-6.53-1.56-8.61Z"/>
            <path class="cls-10" d="M236.89,83.53s0,.33,0,.87c0-.54,0-.87,0-.87Z"/>
            <path class="cls-10" d="M247.94,94.57s-.33,0-.87,0c.54,0,.87,0,.87,0Z"/>
          </g>
          <g>
            <path class="cls-10" d="M390.58,361.93s.33,0,.87,0c-.54,0-.87,0-.87,0Z"/>
            <path class="cls-10" d="M401.63,372.97s0-.33,0-.87c0,.54,0,.87,0,.87Z"/>
            <path class="cls-10" d="M401.63,351.76c-.02,2.08-.21,7.26-1.56,8.61-1.35,1.35-6.53,1.54-8.61,1.56,2.08.02,7.26.21,8.61,1.56,1.35,1.35,1.54,6.53,1.56,8.61.02-2.08.21-7.26,1.56-8.61,1.35-1.35,6.53-1.54,8.61-1.56-2.08-.02-7.26-.21-8.61-1.56-1.35-1.35-1.54-6.53-1.56-8.61Z"/>
            <path class="cls-10" d="M401.63,350.89s0,.33,0,.87c0-.54,0-.87,0-.87Z"/>
            <path class="cls-10" d="M412.67,361.93s-.33,0-.87,0c.54,0,.87,0,.87,0Z"/>
          </g>
          <g>
            <path class="cls-10" d="M239.42,252.82s.33,0,.87,0c-.54,0-.87,0-.87,0Z"/>
            <path class="cls-10" d="M250.46,263.86s0-.33,0-.87c0,.54,0,.87,0,.87Z"/>
            <path class="cls-10" d="M250.46,242.65c-.02,2.08-.21,7.26-1.56,8.61-1.35,1.35-6.53,1.54-8.61,1.56,2.08.02,7.26.21,8.61,1.56,1.35,1.35,1.54,6.53,1.56,8.61.02-2.08.21-7.26,1.56-8.61,1.35-1.35,6.53-1.54,8.61-1.56-2.08-.02-7.26-.21-8.61-1.56-1.35-1.35-1.54-6.53-1.56-8.61Z"/>
            <path class="cls-10" d="M250.46,241.78s0,.33,0,.87c0-.54,0-.87,0-.87Z"/>
            <path class="cls-10" d="M261.51,252.82s-.33,0-.87,0c.54,0,.87,0,.87,0Z"/>
          </g>
          <g>
            <path class="cls-10" d="M316.75,185.05s.18,0,.47,0c-.29,0-.47,0-.47,0Z"/>
            <path class="cls-10" d="M322.73,191.03s0-.18,0-.47c0,.29,0,.47,0,.47Z"/>
            <path class="cls-10" d="M322.73,179.54c-.01,1.13-.12,3.93-.85,4.66s-3.54.83-4.66.85c1.13.01,3.93.12,4.66.85s.83,3.54.85,4.66c.01-1.13.12-3.93.85-4.66.73-.73,3.54-.83,4.66-.85-1.13-.01-3.93-.12-4.66-.85-.73-.73-.83-3.54-.85-4.66Z"/>
            <path class="cls-10" d="M322.73,179.06s0,.18,0,.47c0-.29,0-.47,0-.47Z"/>
            <path class="cls-10" d="M328.72,185.05s-.18,0-.47,0c.29,0,.47,0,.47,0Z"/>
          </g>
          <g>
            <path class="cls-10" d="M52.86,280.39s.18,0,.47,0c-.29,0-.47,0-.47,0Z"/>
            <path class="cls-10" d="M58.85,286.38s0-.18,0-.47c0,.29,0,.47,0,.47Z"/>
            <path class="cls-10" d="M58.85,274.88c-.01,1.13-.12,3.93-.85,4.66-.73.73-3.54.83-4.66.85,1.13.01,3.93.12,4.66.85.73.73.83,3.54.85,4.66.01-1.13.12-3.93.85-4.66.73-.73,3.54-.83,4.66-.85-1.13-.01-3.93-.12-4.66-.85-.73-.73-.83-3.54-.85-4.66Z"/>
            <path class="cls-10" d="M58.85,274.41s0,.18,0,.47c0-.29,0-.47,0-.47Z"/>
            <path class="cls-10" d="M64.83,280.39s-.18,0-.47,0c.29,0,.47,0,.47,0Z"/>
          </g>
          <g>
            <path class="cls-10" d="M424.43,244.32s.18,0,.47,0c-.29,0-.47,0-.47,0Z"/>
            <path class="cls-10" d="M430.42,250.3s0-.18,0-.47c0,.29,0,.47,0,.47Z"/>
            <path class="cls-10" d="M430.42,238.81c-.01,1.13-.12,3.93-.85,4.66s-3.54.83-4.66.85c1.13.01,3.93.12,4.66.85s.83,3.54.85,4.66c.01-1.13.12-3.93.85-4.66.73-.73,3.54-.83,4.66-.85-1.13-.01-3.93-.12-4.66-.85-.73-.73-.83-3.54-.85-4.66Z"/>
            <path class="cls-10" d="M430.42,238.34s0,.18,0,.47c0-.29,0-.47,0-.47Z"/>
            <path class="cls-10" d="M436.4,244.32s-.18,0-.47,0c.29,0,.47,0,.47,0Z"/>
          </g>
          <g>
            <path class="cls-10" d="M346.6,115.35s.18,0,.47,0c-.29,0-.47,0-.47,0Z"/>
            <path class="cls-10" d="M352.59,121.33s0-.18,0-.47c0,.29,0,.47,0,.47Z"/>
            <path class="cls-10" d="M352.59,109.84c-.01,1.13-.12,3.93-.85,4.66-.73.73-3.54.83-4.66.85,1.13.01,3.93.12,4.66.85.73.73.83,3.54.85,4.66.01-1.13.12-3.93.85-4.66.73-.73,3.54-.83,4.66-.85-1.13-.01-3.93-.12-4.66-.85s-.83-3.54-.85-4.66Z"/>
            <path class="cls-10" d="M352.59,109.36s0,.18,0,.47c0-.29,0-.47,0-.47Z"/>
            <path class="cls-10" d="M358.57,115.35s-.18,0-.47,0c.29,0,.47,0,.47,0Z"/>
          </g>
          <g>
            <path class="cls-10" d="M299.97,410.49s.18,0,.47,0c-.29,0-.47,0-.47,0Z"/>
            <path class="cls-10" d="M305.95,416.47s0-.18,0-.47c0,.29,0,.47,0,.47Z"/>
            <path class="cls-10" d="M305.95,404.98c-.01,1.13-.12,3.93-.85,4.66-.73.73-3.54.83-4.66.85,1.13.01,3.93.12,4.66.85.73.73.83,3.54.85,4.66.01-1.13.12-3.93.85-4.66.73-.73,3.54-.83,4.66-.85-1.13-.01-3.93-.12-4.66-.85-.73-.73-.83-3.54-.85-4.66Z"/>
            <path class="cls-10" d="M305.95,404.5s0,.18,0,.47c0-.29,0-.47,0-.47Z"/>
            <path class="cls-10" d="M311.93,410.49s-.18,0-.47,0c.29,0,.47,0,.47,0Z"/>
          </g>
          <g>
            <path class="cls-10" d="M87.65,252.62s.18,0,.47,0c-.29,0-.47,0-.47,0Z"/>
            <path class="cls-10" d="M93.63,258.6s0-.18,0-.47c0,.29,0,.47,0,.47Z"/>
            <path class="cls-10" d="M93.63,247.11c-.01,1.13-.12,3.93-.85,4.66-.73.73-3.54.83-4.66.85,1.13.01,3.93.12,4.66.85.73.73.83,3.54.85,4.66.01-1.13.12-3.93.85-4.66.73-.73,3.54-.83,4.66-.85-1.13-.01-3.93-.12-4.66-.85-.73-.73-.83-3.54-.85-4.66Z"/>
            <path class="cls-10" d="M93.63,246.64s0,.18,0,.47c0-.29,0-.47,0-.47Z"/>
            <path class="cls-10" d="M99.61,252.62s-.18,0-.47,0c.29,0,.47,0,.47,0Z"/>
          </g>
          <g>
            <path class="cls-10" d="M93.16,362.32s.18,0,.47,0c-.29,0-.47,0-.47,0Z"/>
            <path class="cls-10" d="M99.14,368.31s0-.18,0-.47c0,.29,0,.47,0,.47Z"/>
            <path class="cls-10" d="M99.14,356.81c-.01,1.13-.12,3.93-.85,4.66s-3.54.83-4.66.85c1.13.01,3.93.12,4.66.85s.83,3.54.85,4.66c.01-1.13.12-3.93.85-4.66s3.54-.83,4.66-.85c-1.13-.01-3.93-.12-4.66-.85s-.83-3.54-.85-4.66Z"/>
            <path class="cls-10" d="M99.14,356.34s0,.18,0,.47c0-.29,0-.47,0-.47Z"/>
            <path class="cls-10" d="M105.12,362.32s-.18,0-.47,0c.29,0,.47,0,.47,0Z"/>
          </g>
        </g>
      </g>
    </g>
  </g>
</svg>