<?xml version="1.0" encoding="UTF-8"?>
<svg id="OBJECTS" xmlns="http://www.w3.org/2000/svg" xmlns:xlink="http://www.w3.org/1999/xlink" viewBox="0 0 500 500">
  <defs>
    <style>
      .cls-1 {
        fill: #ad2727;
      }

      .cls-1, .cls-2, .cls-3, .cls-4, .cls-5, .cls-6, .cls-7, .cls-8, .cls-9, .cls-10, .cls-11, .cls-12, .cls-13, .cls-14, .cls-15, .cls-16, .cls-17, .cls-18, .cls-19, .cls-20, .cls-21, .cls-22 {
        stroke-width: 0px;
      }

      .cls-2 {
        fill: #ffb31a;
      }

      .cls-3 {
        fill: #f7d4aa;
      }

      .cls-4 {
        fill: #8e4136;
      }

      .cls-5 {
        fill: none;
      }

      .cls-6 {
        fill: #d15009;
      }

      .cls-7 {
        fill: #2196f3;
      }

      .cls-8 {
        fill: #d1a371;
      }

      .cls-9 {
        fill: #fff;
      }

      .cls-10 {
        fill: #1565c0;
      }

      .cls-11 {
        fill: #b78b5f;
      }

      .cls-12 {
        fill: #ff931d;
      }

      .cls-13 {
        fill: #f0d0c6;
      }

      .cls-14 {
        fill: #dd3737;
      }

      .cls-23 {
        clip-path: url(#clippath);
      }

      .cls-15 {
        fill: #c16b5b;
      }

      .cls-16 {
        fill: #d8b288;
      }

      .cls-17 {
        fill: #fff4e9;
      }

      .cls-18 {
        fill: #ffe6ca;
      }

      .cls-19 {
        fill: #0d47a1;
      }

      .cls-20 {
        fill: #0d1b35;
      }

      .cls-21 {
        fill: #821919;
      }

      .cls-22 {
        fill: #ffc82e;
      }
    </style>
    <clipPath id="clippath">
      <rect class="cls-5" x="63.67" y="48.85" width="250.23" height="205.78"/>
    </clipPath>
  </defs>
  <circle class="cls-18" cx="261.25" cy="247.21" r="206.68"/>
  <ellipse class="cls-16" cx="250" cy="442.91" rx="217.93" ry="16.56"/>
  <g>
    <g>
      <g>
        <g>
          <g>
            <path class="cls-16" d="M332.08,265.23c-2.87.69-4.73,3.22-6.01,6.83,0,0-3.49,15.58-2.08,16.65,1.93,1.46,4.86-10.13,4.86-10.13,0,0,1.78,11.91,3.73,11.71,1.94-.2-.14-11.47-.14-11.47,0,0,2.9,8.98,4.33,8.39,1.43-.59-.8-10.16-.8-10.16,0,0,3.23,8.05,4.47,7.51,1.61-.7-1.77-16.7-1.77-16.7l-6.59-2.61Z"/>
            <g>
              <rect class="cls-2" x="310.46" y="264.92" width="36.06" height="50.51" transform="translate(79.67 650.99) rotate(-96.87)"/>
              <rect class="cls-13" x="313.77" y="269.55" width="29.44" height="41.24" transform="translate(79.67 650.99) rotate(-96.87)"/>
              <rect class="cls-12" x="295.59" y="291.56" width="24.86" height="2.15" transform="translate(54.31 633.43) rotate(-96.87)"/>
            </g>
            <path class="cls-16" d="M329.91,266.27s-8.81,7.05-8.04,9.65c.77,2.6,10.21-6.63,10.21-6.63l-2.17-3.02Z"/>
          </g>
          <path class="cls-16" d="M354.76,151.74s-25.03,29.45-26.27,116.11h10.18s1.92-53.02,19.13-85.3l-3.04-30.8Z"/>
        </g>
        <g>
          <path class="cls-7" d="M362.02,143.04s-20.54,16.01-28.9,65.36l14.45,4.44s4.92-21.72,12.61-30.76l1.84-39.04Z"/>
          <polygon class="cls-10" points="347.24 215.25 348.45 210.44 332.81 204.14 332.07 211.05 347.24 215.25"/>
        </g>
      </g>
      <g>
        <g>
          <g>
            <path class="cls-10" d="M413.38,248.54c3.62,120.58,11.96,187.39,11.96,187.39-4.66,2.91-9.27,3.16-13.83.34-13.86-64.45-29.21-158.34-30.38-158.3l1.52-28.94,30.73-.49Z"/>
            <path class="cls-19" d="M411.57,436.27c-9.28,6.82-24.91,4.61-24.77,13.05,20.45,2.17,30.74-2.75,30.74-2.75l.05,2.71,7.14-.9s2.76-6.88.85-12.46l-14.01.34Z"/>
          </g>
          <g>
            <path class="cls-19" d="M356.73,437.24c-9.28,6.82-24.91,4.61-24.77,13.05,20.45,2.17,30.74-2.75,30.74-2.75l.05,2.71,7.14-.9s2.76-6.88.85-12.46l-14.01.34Z"/>
            <path class="cls-10" d="M353.7,249.49l28.95-.46c.51,9.36.06,18.99-1.52,28.94,0,0-11.32,44.91-12.81,67.1.65,25.4,2.41,91.83,2.41,91.83-4.61,2.95-9.22,3.13-13.83.34-3.45-34.9-11.91-67.09-12.54-93.83-1.23-52.21,9.33-93.91,9.33-93.91Z"/>
          </g>
        </g>
        <g>
          <path class="cls-20" d="M381.59,255.95c.02-.69-1.05-.69-1.07,0-.23,6.44-.16,12.89.2,19.33.04.69,1.11.69,1.07,0-.36-6.44-.42-12.89-.2-19.33Z"/>
          <path class="cls-20" d="M381.12,273.17c-1.54-.04-2.26-1.61-2.54-2.91-.34-1.57-.48-3.21-.61-4.81-.25-3.26-.25-6.52-.19-9.79.01-.69-1.06-.69-1.07,0-.07,3.79-.07,7.59.33,11.37.27,2.6.55,7.11,4.08,7.22.69.02.69-1.05,0-1.07Z"/>
        </g>
      </g>
      <g>
        <g>
          <path class="cls-14" d="M376.15,138.43l-14.13,4.61s-7.26,60.58-10.72,107.29c44.5,9.41,63.49-.1,63.49-.1-2.64-55-10.72-107.19-10.72-107.19l-14.04-4.61h-13.89Z"/>
          <g>
            <g>
              <path class="cls-7" d="M376.15,138.43c-4.52.39-9.27,2.19-14.13,4.61,0,0-12.17,101.05-11.72,116.2,0,0,6.7,2.98,22,5.45-.55-44.86.06-98,3.85-126.26Z"/>
              <path class="cls-10" d="M376.15,138.43s-2,32.2-3.45,50.59c0,0-6.76-30.72-6.76-40.84,0,0,6.85-4.09,10.21-9.76Z"/>
              <path class="cls-10" d="M366.61,242.99c-2.85,4.75-6.86,8.73-11.63,11.54-.59.35-.05,1.28.54.92,4.93-2.91,9.07-7.02,12.01-11.93.36-.59-.57-1.13-.92-.54Z"/>
            </g>
            <g>
              <path class="cls-7" d="M390.04,138.43c5,.84,9.73,2.34,14.13,4.61,0,0,12.84,91.89,10.46,114.56,0,0-5.62,3.83-20.92,6.3.55-44.86.12-97.21-3.67-125.47Z"/>
              <path class="cls-10" d="M390.04,138.43s2,32.2,3.45,50.59c0,0,6.76-30.72,6.76-40.84,0,0-6.85-4.09-10.21-9.76Z"/>
              <path class="cls-10" d="M397.79,242.99c2.85,4.75,6.86,8.73,11.63,11.54.59.35.05,1.28-.54.92-4.93-2.91-9.07-7.02-12.01-11.93-.36-.59.57-1.13.92-.54Z"/>
            </g>
          </g>
        </g>
        <g>
          <g>
            <path class="cls-16" d="M407.31,148.19l2.2,38.4c5.34,7.43,14,18.79,17.89,27.86l-13.65,44.73,8.51,4.67s19.15-41.74,19.62-52.53c.68-14.98-34.56-63.13-34.56-63.13Z"/>
            <path class="cls-16" d="M413.8,258.99s-2.93,13.79,4.7,14.97c7.63,1.19,12.23-2.45,11.67-5.83-.57-3.39-2.14-.46-2.52,0-.38.46.02-7.08-1.77-9.2s-10.53-1.43-12.07.06Z"/>
          </g>
          <g>
            <path class="cls-7" d="M404.17,143.04s27.63,34.76,37.7,64.21l-15.76,6.58s-11.02-21.55-20.24-27.31l-1.71-43.48Z"/>
            <polygon class="cls-10" points="426.02 215.53 424.11 210.95 441 201.12 442.74 207.85 426.02 215.53"/>
          </g>
        </g>
      </g>
    </g>
    <g>
      <path class="cls-20" d="M400.93,105.91c-1.92,5.65-4.59,11.06-7.99,15.96-1.2,1.73-2.69,3.82-5.03,3.87-2.54.05-4.02-2.12-5.2-4.04-5.4-8.82-16.69-11.57-22.22-20.35-2.57-4.08-4.62-9.91-3.35-14.56.96-3.52,3.76-6.34,7-8.02,3.25-1.67,6.92-2.32,10.56-2.64,5.6-.49,11.35-.24,16.68,1.57,1.63.55,3.28,1.31,4.34,2.67,1.06,1.36,1.32,3.48.16,4.76,1.85-1.28,4.66-.21,6.07,1.54,1.41,1.75,1.76,4.12,1.76,6.37,0,4.13-1.47,8.97-2.8,12.88Z"/>
      <path class="cls-16" d="M391.83,90.63c-6.27-11.49-28.33-7.57-30.04,1.57-3.53,18.8-.85,26.51,4.38,30.95,6.05,5.14,9.99,4.48,9.99,15.28,1.14,2.87,4.06,10.41,6.9,10.5s5.58-7.24,6.99-10.5c-.17-14.3,4.73-25.14,4.73-25.14,0,0-.36-17.92-2.95-22.66Z"/>
      <path class="cls-20" d="M389.48,93.18c-3.79,5.46-11.41,4.2-11.41,4.2l4.4-3.79s-10.88,6.44-22.12,4.21c0,0-1.65-4.12,3.4-11,3.23-4.4,12.63-5.49,20.64-4.01,8.01,1.48,11.49,4.96,11.75,10.71.26,5.75.85,12.92.85,12.92l-3.11,2.37c-4.88-3.25-4.4-15.62-4.4-15.62Z"/>
      <g>
        <g>
          <path class="cls-20" d="M378.35,108.35c0,.78-.63,1.41-1.41,1.41s-1.41-.63-1.41-1.41.63-1.41,1.41-1.41,1.41.63,1.41,1.41Z"/>
          <path class="cls-9" d="M376.94,107.96c0,.29-.23.52-.52.52s-.52-.23-.52-.52.23-.52.52-.52.52.23.52.52Z"/>
        </g>
        <g>
          <path class="cls-20" d="M367.42,108.35c0,.78-.63,1.41-1.41,1.41s-1.41-.63-1.41-1.41.63-1.41,1.41-1.41,1.41.63,1.41,1.41Z"/>
          <path class="cls-9" d="M366,107.96c0,.29-.23.52-.52.52s-.52-.23-.52-.52.23-.52.52-.52.52.23.52.52Z"/>
        </g>
        <path class="cls-20" d="M368.36,102.81c-1.78-1.24-4.08-1.17-5.76.28-.31.27-.37.82-.13,1.17.24.36.71.42,1.02.15.69-.59,1.56-.86,2.42-.8.43.03.86.15,1.26.35.35.18.69.48,1.09.25.09-.05.18-.13.24-.23.22-.33.2-.93-.13-1.17Z"/>
        <path class="cls-20" d="M373.88,102.81c2.04-1.24,4.68-1.17,6.6.28.36.27.42.82.15,1.17-.28.36-.81.42-1.17.15-.79-.59-1.79-.85-2.77-.79-.49.03-.98.15-1.44.34-.4.17-.8.47-1.25.24-.11-.05-.2-.13-.27-.23-.25-.33-.23-.93.15-1.17Z"/>
        <path class="cls-11" d="M370.92,116.39c-.77,0-1.57-.17-2.35-.58-.36-.19-.5-.64-.31-1,.19-.36.64-.5,1-.31,1.87.98,3.96-.03,4.55-.84.24-.33.7-.4,1.03-.16s.4.7.16,1.03c-.7.96-2.31,1.86-4.08,1.86Z"/>
        <path class="cls-11" d="M369.17,112.18c-.08,0-.15-.05-.18-.13-.35-1.21.06-1.62.47-1.75.41-.13.9-.03,1.46.32.09.05.11.17.06.25-.05.09-.17.11-.25.06-.46-.29-.85-.38-1.16-.28-.36.12-.44.55-.22,1.29.03.1-.03.2-.13.23-.02,0-.03,0-.05,0Z"/>
      </g>
      <g>
        <path class="cls-16" d="M399.61,113.7c-1.89,2.25-4.87,2.87-6.66,1.36-1.79-1.5-1.71-4.54.18-6.8,1.89-2.25,4.87-2.87,6.66-1.36,1.79,1.5,1.71,4.54-.18,6.8Z"/>
        <path class="cls-11" d="M398.56,108.01c-.8-.42-1.88-.41-2.87.06-.49.23-.85.51-1.1.85-.32.46-.41,1.03-.23,1.49.16.42.49.69.79.93.21.17.41.34.53.53.17.3.13.72-.1.98-.23.26-.65.34-.96.19-.19-.09-.4,0-.49.18-.09.18,0,.4.18.49.2.09.42.14.64.14.44,0,.88-.18,1.18-.51.45-.49.53-1.27.19-1.85-.18-.31-.46-.54-.7-.73-.24-.2-.47-.39-.56-.62-.09-.23-.03-.55.15-.8.07-.1.17-.19.28-.28.37,0,.83.11,1.06.36.26.29.38.7.32,1.08-.03.2.1.39.3.42.02,0,.04,0,.06,0,.18,0,.33-.13.36-.31.1-.61-.09-1.24-.51-1.7-.16-.17-.35-.28-.55-.38.61-.16,1.21-.13,1.68.11.58.31,1.01,1.09.72,1.74-.09.19,0,.4.18.49.19.09.4,0,.49-.18.43-.94-.05-2.17-1.04-2.7Z"/>
      </g>
    </g>
  </g>
  <g>
    <g>
      <g>
        <g>
          <rect class="cls-7" x="57.26" y="43.58" width="263.06" height="216.33"/>
          <g>
            <circle class="cls-9" cx="289.47" cy="53.8" r="2.47"/>
            <circle class="cls-9" cx="297.06" cy="53.8" r="2.47"/>
            <circle class="cls-9" cx="304.65" cy="53.8" r="2.47"/>
          </g>
        </g>
        <rect class="cls-17" x="63.67" y="62.15" width="250.23" height="192.48"/>
        <ellipse class="cls-9" cx="188.79" cy="156.91" rx="110.74" ry="76.66"/>
      </g>
      <g class="cls-23">
        <g>
          <path class="cls-20" d="M167.74,97.01c-3.15,3.76-4.09,8.83-4.4,13.63-.3,4.8-.1,9.68-1.44,14.35-.85,2.97-2.31,5.76-3.34,8.69-1.03,2.92-1.63,6.14-.71,9.01,1.55,4.82,6.8,7.17,11.7,8.37,12.22,2.97,25.45,1.9,37.66-2.31,2.37-.82,4.85-1.86,6.32-3.93,1.53-2.15,1.64-4.96,1.26-7.49-.68-4.52-2.7-8.72-3.07-13.3-.72-8.75,4.63-17.94,2.01-26.23-1.72-5.45-6.72-9.25-12.19-10.82-5.47-1.57-11.39-1.21-17.13-.41-2.35.33-4.76.75-6.83,2-2.13,1.3-3.35,3.29-3.59,5.7-2.52-.19-4.54.69-6.26,2.74Z"/>
          <g>
            <g>
              <path class="cls-3" d="M235.03,184.65s11.13-21.48,13.46-31.79l8.07.47s-9.08,46.21-18.57,48.71c-7.58,2-28.11-25.17-28.11-25.17l-7.12-25.75s14.94,11.51,32.26,33.55Z"/>
              <path class="cls-3" d="M254.4,159.09s12.57-5.8,9.02-12.5c-3.55-6.7-9.12-8.19-11.45-5.75-2.33,2.44.9,1.95,1.49,1.98.59.03-5.58,4.15-6.2,6.81s5.07,9.13,7.14,9.46Z"/>
            </g>
            <g>
              <path class="cls-2" d="M153.33,258.63c26.85,6.97,48.01,4.13,67.16-2.39-.95-10.66-4.59-15.66-7.92-25.88-.88-2.71-1.38-5.47-1.59-8.25-.6-8.06,1.25-16.25,3.19-23.65,2.98-11.31,2.98-16.21,0-27.52-1.74-6.61-11.4-19.83-11.4-19.83-.56-.35-1.14-.7-1.74-1.01-.45-.25-.91-.47-1.39-.68-1.31-.59-2.7-1.09-4.13-1.49-5.59-1.56-11.89-1.64-17.2-.33-.39.09-.77.18-1.14.28-.95.22-1.86.43-2.73.67-1.44.39-2.87.77-4.28,1.41-1.17.53-2.31,1.23-3.43,2.27-3.62,3.35-4.78,11.87-5.18,16.67-1.68,19.91,2.11,31.16-.28,50.98-.22,1.81-.55,3.55-.94,5.24-2.29,9.88-6.99,18.45-6.99,33.5Z"/>
              <g>
                <path class="cls-17" d="M179.91,147.23s1.95,13.07,10.1,23.45c.72-.72,4.71-14.18,3.79-23.17l-13.9-.27Z"/>
                <path class="cls-22" d="M179.91,147.23s4.37,16.54,10.1,23.45c0,0-10.1-6.79-15.05-15.82l4.95-7.63Z"/>
                <path class="cls-22" d="M193.81,147.5c.23.29-2.19,19.52-3.79,23.17,0,0,6.54-7.34,10.21-16.32l-6.42-6.86Z"/>
              </g>
            </g>
            <g>
              <path class="cls-3" d="M136.26,184.37s-11.13-21.48-13.46-31.79l-8.07.47s9.08,46.21,18.57,48.71c4.64,1.22,16.48-11.33,24.98-21.25,6.08-7.11,9.42-16.15,9.42-25.51v-3.58s-14.12,10.92-31.44,32.96Z"/>
              <path class="cls-3" d="M116.41,159.09s-12.57-5.8-9.02-12.5c3.55-6.7,9.12-8.19,11.45-5.75,2.33,2.44-.9,1.95-1.49,1.98s5.58,4.15,6.2,6.81-5.07,9.13-7.14,9.46Z"/>
            </g>
          </g>
          <g>
            <path class="cls-3" d="M178.13,99.43c6.27-11.49,28.33-7.57,30.04,1.57,3.53,18.8.85,26.51-4.38,30.95-6.05,5.14-9.98,4.76-9.98,15.56-2.29,5.75-11.07,6.26-13.9-.27.17-14.3-4.73-25.14-4.73-25.14,0,0,.36-17.92,2.95-22.66Z"/>
            <path class="cls-20" d="M209.5,102.1c-.45-1.73-1.4-3.92-3.3-6.5-3.23-4.4-12.63-5.49-20.64-4.01s-11.49,4.96-11.75,10.71c-.26,5.75-.85,12.92-.85,12.92l3.11,2.37c4.88-3.25,4.4-15.62,4.4-15.62,1.07,1.33,1.75,2.97,2.02,4.66,9.03.78,18.15.67,27.13-.47.13-1.19.18-2.91-.12-4.06Z"/>
            <g>
              <g>
                <path class="cls-20" d="M191.6,117.15c0,.78.63,1.41,1.41,1.41s1.41-.63,1.41-1.41-.63-1.41-1.41-1.41-1.41.63-1.41,1.41Z"/>
                <path class="cls-9" d="M193.01,116.76c0,.29.23.52.52.52s.52-.23.52-.52-.23-.52-.52-.52-.52.23-.52.52Z"/>
              </g>
              <g>
                <path class="cls-20" d="M202.54,117.15c0,.78.63,1.41,1.41,1.41s1.41-.63,1.41-1.41-.63-1.41-1.41-1.41-1.41.63-1.41,1.41Z"/>
                <path class="cls-9" d="M203.95,116.76c0,.29.23.52.52.52s.52-.23.52-.52-.23-.52-.52-.52-.52.23-.52.52Z"/>
              </g>
              <path class="cls-20" d="M201.59,111.61c1.78-1.24,4.08-1.17,5.76.28.31.27.37.82.13,1.17-.24.36-.71.42-1.02.15-.69-.59-1.56-.86-2.42-.8-.43.03-.86.15-1.26.35-.35.18-.69.48-1.09.25-.09-.05-.18-.13-.24-.23-.22-.33-.2-.93.13-1.17Z"/>
              <path class="cls-20" d="M196.08,111.61c-2.04-1.24-4.68-1.17-6.6.28-.36.27-.42.82-.15,1.17.28.36.81.42,1.17.15.79-.59,1.79-.85,2.77-.79.49.03.98.15,1.44.34.4.17.8.47,1.25.24.11-.05.2-.13.27-.23.25-.33.23-.93-.15-1.17Z"/>
              <path class="cls-8" d="M200.78,120.98c.08,0,.15-.05.18-.13.35-1.21-.06-1.62-.47-1.75-.41-.13-.9-.03-1.46.32-.09.05-.11.17-.06.25.05.09.17.11.25.06.46-.29.85-.38,1.16-.28.36.12.44.55.22,1.29-.03.1.03.2.13.23.02,0,.03,0,.05,0Z"/>
              <g>
                <path class="cls-4" d="M195.12,122.52c.54-.71,1.76.17,3.28.4,1.52.23,2.94-.23,3.24.61.38,1.06-1.31,3.3-3.79,2.92-2.48-.39-3.41-3.03-2.73-3.93Z"/>
                <path class="cls-15" d="M195.08,124.18c.48.01,1,.05,1.53.14,1.76.27,3.22.87,3.84,1.5-.67.49-1.56.8-2.6.64-1.49-.23-2.41-1.28-2.77-2.27Z"/>
                <path class="cls-9" d="M198.26,123.78c-1.35-.21-2.45-.71-2.76-1.5.64-.15,1.67.46,2.89.65,1.22.19,2.39-.08,2.95.25-.53.67-1.73.81-3.09.6Z"/>
              </g>
            </g>
            <g>
              <path class="cls-3" d="M170.34,122.5c1.89,2.25,4.87,2.87,6.66,1.36,1.79-1.5,1.71-4.54-.18-6.8-1.89-2.25-4.87-2.87-6.66-1.36-1.79,1.5-1.71,4.54.18,6.8Z"/>
              <path class="cls-8" d="M171.39,116.81c.8-.42,1.88-.41,2.87.06.49.23.85.51,1.1.85.32.46.41,1.03.23,1.49-.16.42-.49.69-.79.93-.21.17-.41.34-.53.53-.17.3-.13.72.1.98.23.26.65.34.96.19.19-.09.4,0,.49.18.09.18,0,.4-.18.49-.2.09-.42.14-.64.14-.44,0-.88-.18-1.18-.51-.45-.49-.53-1.27-.19-1.85.18-.31.46-.54.7-.73.24-.2.47-.39.56-.62.09-.23.03-.55-.15-.8-.07-.1-.17-.19-.28-.28-.37,0-.83.11-1.06.36-.26.29-.38.7-.32,1.08.03.2-.1.39-.3.42-.02,0-.04,0-.06,0-.18,0-.33-.13-.36-.31-.1-.61.09-1.24.51-1.7.16-.17.35-.28.55-.38-.61-.16-1.21-.13-1.68.11-.58.31-1.01,1.09-.72,1.74.09.19,0,.4-.18.49-.19.09-.4,0-.49-.18-.43-.94.05-2.17,1.04-2.7Z"/>
            </g>
          </g>
        </g>
      </g>
    </g>
    <g>
      <rect class="cls-2" x="271.15" y="74.76" width="62.06" height="76.98"/>
      <g>
        <path class="cls-17" d="M306.18,85.28h-26.26c-.86,0-1.56-.7-1.56-1.56h0c0-.86.7-1.56,1.56-1.56h26.26c.86,0,1.56.7,1.56,1.56h0c0,.86-.7,1.56-1.56,1.56Z"/>
        <path class="cls-17" d="M324.44,94.66h-44.52c-.86,0-1.56-.7-1.56-1.56h0c0-.86.7-1.56,1.56-1.56h44.52c.86,0,1.56.7,1.56,1.56h0c0,.86-.7,1.56-1.56,1.56Z"/>
        <path class="cls-17" d="M324.44,102.47h-44.52c-.86,0-1.56-.7-1.56-1.56h0c0-.86.7-1.56,1.56-1.56h44.52c.86,0,1.56.7,1.56,1.56h0c0,.86-.7,1.56-1.56,1.56Z"/>
        <path class="cls-17" d="M324.44,110.29h-44.52c-.86,0-1.56-.7-1.56-1.56h0c0-.86.7-1.56,1.56-1.56h44.52c.86,0,1.56.7,1.56,1.56h0c0,.86-.7,1.56-1.56,1.56Z"/>
        <path class="cls-17" d="M324.44,118.1h-44.52c-.86,0-1.56-.7-1.56-1.56h0c0-.86.7-1.56,1.56-1.56h44.52c.86,0,1.56.7,1.56,1.56h0c0,.86-.7,1.56-1.56,1.56Z"/>
        <path class="cls-17" d="M324.44,125.92h-44.52c-.86,0-1.56-.7-1.56-1.56h0c0-.86.7-1.56,1.56-1.56h44.52c.86,0,1.56.7,1.56,1.56h0c0,.86-.7,1.56-1.56,1.56Z"/>
        <path class="cls-17" d="M324.44,133.73h-44.52c-.86,0-1.56-.7-1.56-1.56h0c0-.86.7-1.56,1.56-1.56h44.52c.86,0,1.56.7,1.56,1.56h0c0,.86-.7,1.56-1.56,1.56Z"/>
        <path class="cls-17" d="M324.44,141.54h-44.52c-.86,0-1.56-.7-1.56-1.56h0c0-.86.7-1.56,1.56-1.56h44.52c.86,0,1.56.7,1.56,1.56h0c0,.86-.7,1.56-1.56,1.56Z"/>
      </g>
    </g>
  </g>
  <g>
    <g>
      <g>
        <rect class="cls-2" x="72.06" y="319.08" width="233.45" height="123.83"/>
        <rect class="cls-12" x="79.22" y="326.85" width="219.13" height="108.28"/>
        <rect class="cls-6" x="231.23" y="326.85" width="67.12" height="108.28"/>
        <rect class="cls-2" x="136.06" y="326.85" width="9.11" height="108.28"/>
        <rect class="cls-2" x="78.07" y="377.1" width="222.01" height="7.78"/>
        <rect class="cls-12" x="72.06" y="319.08" width="64" height="123.83"/>
      </g>
      <g>
        <g>
          <g>
            <rect class="cls-1" x="145.17" y="338.37" width="11.9" height="38.73"/>
            <circle class="cls-20" cx="151.12" cy="344.62" r="3.25"/>
          </g>
          <g>
            <rect class="cls-7" x="157.07" y="338.37" width="11.9" height="38.73"/>
            <circle class="cls-20" cx="163.02" cy="344.62" r="3.25"/>
          </g>
        </g>
        <g>
          <rect class="cls-19" x="259.12" y="338.37" width="27.34" height="38.73"/>
          <g>
            <rect class="cls-7" x="286.46" y="338.37" width="11.9" height="38.73"/>
            <circle class="cls-20" cx="292.4" cy="344.62" r="3.25"/>
          </g>
        </g>
        <g>
          <g>
            <rect class="cls-7" x="261.23" y="396.4" width="11.9" height="38.73"/>
            <circle class="cls-20" cx="267.18" cy="402.65" r="3.25"/>
          </g>
          <g>
            <rect class="cls-21" x="222" y="396.4" width="27.34" height="38.73"/>
            <g>
              <rect class="cls-1" x="249.34" y="396.4" width="11.9" height="38.73"/>
              <circle class="cls-20" cx="255.29" cy="402.65" r="3.25"/>
            </g>
          </g>
        </g>
        <g>
          <g>
            <path class="cls-7" d="M197.38,423.23v11.9h-38.73c-1.35,0-1.35-11.9,0-11.9h38.73Z"/>
            <rect class="cls-9" x="176.28" y="412.2" width="8.23" height="33.96" transform="translate(-248.79 609.58) rotate(-90)"/>
          </g>
          <g>
            <path class="cls-1" d="M205.4,411.34v11.9h-38.73c-1.35,0-1.35-11.9,0-11.9h38.73Z"/>
            <rect class="cls-9" x="184.3" y="400.3" width="8.23" height="33.96" transform="translate(-228.87 605.7) rotate(-90)"/>
          </g>
        </g>
      </g>
    </g>
    <g>
      <g>
        <g>
          <path class="cls-19" d="M252.68,308.2v10.88h35.42c1.23,0,1.23-10.88,0-10.88h-35.42Z"/>
          <rect class="cls-9" x="264.44" y="298.11" width="7.52" height="31.05" transform="translate(-45.43 581.84) rotate(-90)"/>
        </g>
        <g>
          <path class="cls-1" d="M245.34,297.32v10.88h35.42c1.23,0,1.23-10.88,0-10.88h-35.42Z"/>
          <rect class="cls-9" x="257.11" y="287.23" width="7.52" height="31.05" transform="translate(-41.89 563.63) rotate(-90)"/>
        </g>
      </g>
      <g>
        <g>
          <g>
            <path class="cls-12" d="M99.15,295.48c-.9-24.18,20.98-25,20.98-25,0,0,2.99,21.69-20.98,25Z"/>
            <path class="cls-2" d="M118.7,272.18c-1.68,1.65-3.27,3.37-4.85,5.11-1.59,1.73-3.1,3.52-4.62,5.3-1.5,1.8-2.99,3.61-4.42,5.47-1.44,1.85-2.86,3.72-4.19,5.67,1.69-1.65,3.27-3.37,4.85-5.11,1.58-1.73,3.1-3.52,4.62-5.31,1.5-1.81,2.99-3.61,4.42-5.47,1.44-1.85,2.86-3.72,4.19-5.66Z"/>
          </g>
          <g>
            <path class="cls-2" d="M99.15,295.48c16.23-17.94,0-32.64,0-32.64,0,0-16.23,14.7,0,32.64Z"/>
            <path class="cls-12" d="M99.15,265.06c.23,2.34.34,4.69.43,7.03.1,2.34.12,4.69.13,7.03-.01,2.34-.03,4.69-.13,7.03-.09,2.34-.2,4.69-.43,7.03-.23-2.34-.34-4.69-.43-7.03-.1-2.34-.12-4.69-.13-7.03.01-2.34.03-4.69.13-7.03.09-2.34.2-4.69.43-7.03Z"/>
          </g>
          <g>
            <path class="cls-12" d="M99.15,295.48c.9-24.18-20.98-25-20.98-25,0,0-2.99,21.69,20.98,25Z"/>
            <path class="cls-2" d="M79.59,272.18c1.68,1.65,3.27,3.37,4.85,5.11,1.59,1.73,3.1,3.52,4.62,5.3,1.5,1.8,2.99,3.61,4.42,5.47,1.44,1.85,2.86,3.72,4.19,5.67-1.69-1.65-3.27-3.37-4.85-5.11-1.58-1.73-3.1-3.52-4.62-5.31-1.5-1.81-2.99-3.61-4.42-5.47-1.44-1.85-2.86-3.72-4.19-5.66Z"/>
          </g>
        </g>
        <path class="cls-6" d="M88.66,294.61h22.04v16.39c0,4.46-3.62,8.08-8.08,8.08h-5.88c-4.46,0-8.08-3.62-8.08-8.08v-16.39h0Z"/>
      </g>
      <g>
        <g>
          <rect class="cls-7" x="153.42" y="271.9" width="68.45" height="44.83"/>
          <rect class="cls-17" x="156.38" y="274.61" width="62.53" height="42.11"/>
          <path class="cls-18" d="M191.43,294.77c2.82-1.4,4.76-4.29,4.76-7.65,0-4.72-3.83-8.55-8.55-8.55s-8.55,3.83-8.55,8.55c0,3.36,1.94,6.26,4.76,7.65-6.83,1.69-11.88,7.86-11.88,15.21v5.46h31.34v-5.46c0-7.35-5.06-13.51-11.88-15.21Z"/>
          <path class="cls-17" d="M188.32,273.33c0,.38-.3.68-.68.68s-.68-.3-.68-.68.3-.68.68-.68.68.3.68.68Z"/>
        </g>
        <g>
          <rect class="cls-7" x="153.42" y="315.44" width="87.92" height="3.62"/>
          <rect class="cls-7" x="153.42" y="315.44" width="38.45" height="3.62"/>
        </g>
      </g>
      <path class="cls-7" d="M134.51,304.44h-.27v-1.74c0-.71-.57-1.28-1.28-1.28h-12.97c-.71,0-1.28.57-1.28,1.28v15.09c0,.71.57,1.28,1.28,1.28h12.97c.71,0,1.28-.57,1.28-1.28v-1.74h.27c3.2,0,5.81-2.61,5.81-5.81s-2.61-5.81-5.81-5.81ZM134.51,314.26h-.27v-8.03h.27c2.22,0,4.02,1.8,4.02,4.02s-1.8,4.02-4.02,4.02Z"/>
    </g>
  </g>
</svg>