<?xml version="1.0" encoding="UTF-8"?>
<svg id="Layer_1" data-name="Layer 1" xmlns="http://www.w3.org/2000/svg" viewBox="0 0 595.28 841.89">
  <defs>
    <style>
      .cls-1, .cls-2, .cls-3 {
        fill: #ffffff;
        stroke-width: 0px;
      }

      .cls-1, .cls-3 {
        fill-rule: evenodd;
      }
    </style>
  </defs>
  <g>
    <path class="cls-1" d="M361.95,316.21c184.39,41.84,280.48,246.8,195.38,416.65-12.06,24.11-45.39,69.15-58.86,79.78-13.12,10.64-36.17,9.57-47.16-2.13-8.16-8.51-8.51-11.35-8.86-57.44-.35-36.88-2.13-55.67-7.8-77.66-20.92-82.27-78.01-152.48-151.77-187.94-75.17-35.81-147.87-41.13-222.69-16.67-13.83,4.26-25.53,7.45-26.59,6.74-3.19-3.55,30.14-53.54,50.35-74.82,70.92-75.88,177.65-109.22,278-86.52Z"/>
    <path class="cls-3" d="M231.32,313.21C46.93,355.05-49.16,560.01,35.94,729.86c12.06,24.11,45.39,69.15,58.86,79.78,13.12,10.64,36.17,9.57,47.16-2.13,8.16-8.51,8.51-11.35,8.86-57.44.35-36.88,2.13-55.67,7.8-77.66,20.92-82.27,78.01-152.48,151.77-187.94,75.17-35.81,147.87-41.13,222.69-16.67,13.83,4.26,25.53,7.45,26.59,6.74,3.19-3.55-30.14-53.54-50.35-74.82-70.92-75.88-177.65-109.22-278-86.52Z"/>
  </g>
  <circle class="cls-2" cx="297.64" cy="157.09" r="135.2"/>
</svg>